<svg width="277" height="200" viewBox="0 0 277 200" fill="none" xmlns="http://www.w3.org/2000/svg">
<path opacity="0.1" d="M160.943 35.1987C143.185 34.5815 126.258 28.8484 110.119 22.577C93.9807 16.3057 77.9849 9.35602 60.6425 6.03291C49.4924 3.89317 36.7406 3.59223 27.7583 9.57025C19.1126 15.3213 16.32 25.2498 14.8178 34.4617C13.688 41.3935 13.0326 48.6875 16.121 55.1782C18.271 59.6821 22.0863 63.4694 24.7259 67.7846C33.9072 82.7985 27.4165 101.314 17.4651 115.986C12.7979 122.872 7.38354 129.424 3.78244 136.746C0.181344 144.068 -1.48658 152.456 1.66565 159.924C4.78983 167.32 12.2318 172.885 20.296 176.794C36.6743 184.728 55.9728 186.998 74.7919 188.299C116.449 191.148 158.331 189.913 200.098 188.679C215.556 188.22 231.083 187.758 246.288 185.363C254.732 184.035 263.452 181.928 269.583 176.843C277.364 170.385 279.294 159.454 274.079 151.357C265.331 137.779 241.146 134.405 235.03 119.832C231.667 111.811 235.122 102.875 240.014 95.4355C250.503 79.4779 268.091 65.4765 269.016 47.2338C269.654 34.704 261.2 22.1588 248.126 16.2292C234.426 10.0089 215.426 10.7944 205.319 21.0749C194.911 31.6665 176.62 35.742 160.943 35.1987Z" fill="#009688"/>
<path d="M61.7825 184.907C61.7825 184.907 47.7556 174.303 45.1058 160.814C44.0312 155.148 41.1489 149.984 36.8911 146.096C34.8543 144.266 32.6544 142.627 30.3189 141.199" stroke="#535461" stroke-width="2" stroke-miterlimit="10"/>
<path d="M28.6025 132.701C29.8317 134.364 30.3877 141.411 30.3877 141.411C30.3877 141.411 23.8155 138.822 22.5837 137.162C21.9921 136.364 21.7419 135.363 21.888 134.381C22.0342 133.398 22.5646 132.514 23.3628 131.922C24.1609 131.331 25.1614 131.08 26.144 131.226C27.1266 131.373 28.011 131.903 28.6025 132.701Z" fill="#009688"/>
<path d="M40.3902 138.23C40.5177 140.294 37.1589 146.511 37.1589 146.511C37.1589 146.511 33.0452 140.763 32.9151 138.7C32.8657 137.716 33.2058 136.753 33.8617 136.018C34.5177 135.283 35.4367 134.837 36.4197 134.775C37.4026 134.713 38.3703 135.041 39.113 135.688C39.8557 136.335 40.3137 137.248 40.3877 138.23H40.3902Z" fill="#009688"/>
<path d="M51.8158 154.124C50.8874 155.971 44.8456 159.643 44.8456 159.643C44.8456 159.643 44.2004 152.604 45.1287 150.758C45.5857 149.889 46.3653 149.235 47.2998 148.936C48.2343 148.637 49.2489 148.716 50.1253 149.157C51.0018 149.599 51.67 150.366 51.9861 151.295C52.3023 152.224 52.2411 153.24 51.8158 154.124Z" fill="#009688"/>
<path d="M57.7555 168.09C57.1511 170.066 51.8183 174.706 51.8183 174.706C51.8183 174.706 49.9897 167.878 50.5942 165.899C50.8847 164.949 51.5405 164.154 52.4175 163.688C53.2944 163.222 54.3206 163.123 55.2702 163.414C56.2199 163.704 57.0152 164.36 57.4813 165.237C57.9474 166.114 58.0461 167.14 57.7555 168.09Z" fill="#009688"/>
<path d="M31.0788 151.51C33.1191 151.786 39.569 148.873 39.569 148.873C39.569 148.873 34.1265 144.364 32.076 144.089C31.0919 143.956 30.0955 144.22 29.3061 144.823C28.5167 145.425 27.9989 146.317 27.8667 147.301C27.7344 148.285 27.9986 149.281 28.601 150.071C29.2034 150.86 30.0947 151.378 31.0788 151.51Z" fill="#009688"/>
<path d="M38.2326 167.758C40.2729 167.409 45.5444 162.704 45.5444 162.704C45.5444 162.704 39.0002 160.031 36.9625 160.38C36.4746 160.46 36.0074 160.636 35.5879 160.897C35.1683 161.159 34.8047 161.501 34.518 161.904C34.2313 162.307 34.0272 162.762 33.9175 163.244C33.8078 163.726 33.7947 164.225 33.8789 164.712C33.9631 165.2 34.143 165.665 34.4081 166.083C34.6732 166.5 35.0184 166.86 35.4236 167.144C35.8288 167.427 36.2862 167.627 36.7692 167.732C37.2522 167.838 37.7513 167.847 38.2377 167.758H38.2326Z" fill="#009688"/>
<path d="M47.3501 182.599C49.4184 182.599 55.4118 178.852 55.4118 178.852C55.4118 178.852 49.4159 175.111 47.3476 175.111C46.3546 175.111 45.4023 175.505 44.7002 176.208C43.9981 176.91 43.6036 177.862 43.6036 178.855C43.6036 179.848 43.9981 180.8 44.7002 181.502C45.4023 182.204 46.3546 182.599 47.3476 182.599H47.3501Z" fill="#009688"/>
<path d="M198.048 93.1886C198.048 93.1886 206.693 77.8738 219.726 73.4617C225.198 71.6443 229.934 68.1015 233.222 63.3648C234.765 61.1003 236.095 58.6988 237.198 56.1907" stroke="#535461" stroke-width="2" stroke-miterlimit="10"/>
<path d="M245.38 53.3853C243.895 54.8237 236.987 56.3131 236.987 56.3131C236.987 56.3131 238.683 49.4526 240.167 48.0117C240.883 47.3409 241.835 46.9783 242.816 47.0019C243.797 47.0255 244.73 47.4334 245.413 48.1379C246.096 48.8423 246.476 49.7869 246.47 50.7683C246.463 51.7498 246.072 52.6895 245.38 53.3853Z" fill="#009688"/>
<path d="M241.473 65.7877C239.432 66.1906 232.835 63.6862 232.835 63.6862C232.835 63.6862 237.986 58.8405 240.014 58.4452C240.501 58.3372 241.004 58.3275 241.495 58.4167C241.985 58.5059 242.453 58.6922 242.871 58.9647C243.289 59.2372 243.648 59.5904 243.927 60.0036C244.206 60.4167 244.4 60.8815 244.497 61.3706C244.594 61.8597 244.593 62.3633 244.493 62.8518C244.393 63.3404 244.196 63.8039 243.914 64.2154C243.632 64.6269 243.271 64.9779 242.852 65.2479C242.433 65.5179 241.964 65.7014 241.473 65.7877Z" fill="#009688"/>
<path d="M227.252 79.2229C225.298 78.547 220.858 73.0485 220.858 73.0485C220.858 73.0485 227.744 71.4724 229.703 72.1482C230.173 72.3043 230.608 72.5524 230.982 72.8779C231.356 73.2035 231.662 73.6 231.881 74.0446C232.101 74.4893 232.23 74.973 232.261 75.4679C232.292 75.9627 232.224 76.4588 232.062 76.9273C231.899 77.3958 231.646 77.8274 231.315 78.197C230.985 78.5666 230.584 78.8669 230.137 79.0805C229.689 79.2941 229.204 79.4166 228.709 79.4411C228.213 79.4655 227.718 79.3914 227.252 79.2229Z" fill="#009688"/>
<path d="M214.184 86.9658C212.144 86.6291 206.849 81.9492 206.849 81.9492C206.849 81.9492 213.375 79.2305 215.413 79.5672C216.394 79.7285 217.27 80.2728 217.85 81.0804C218.429 81.888 218.664 82.8927 218.503 83.8735C218.342 84.8542 217.797 85.7307 216.99 86.3102C216.182 86.8896 215.177 87.1245 214.197 86.9632L214.184 86.9658Z" fill="#009688"/>
<path d="M227.073 58.3228C227.071 60.3911 230.822 66.3921 230.822 66.3921C230.822 66.3921 234.569 60.3988 234.569 58.333C234.582 57.8333 234.495 57.336 234.313 56.8705C234.13 56.405 233.857 55.9807 233.508 55.6227C233.159 55.2646 232.742 54.9801 232.281 54.7858C231.821 54.5915 231.326 54.4913 230.826 54.4913C230.326 54.4913 229.832 54.5915 229.371 54.7858C228.91 54.9801 228.493 55.2646 228.145 55.6227C227.796 55.9807 227.522 56.405 227.34 56.8705C227.158 57.336 227.071 57.8333 227.084 58.333L227.073 58.3228Z" fill="#009688"/>
<path d="M211.917 67.5703C212.534 69.5443 217.9 74.1477 217.9 74.1477C217.9 74.1477 219.685 67.3077 219.063 65.3337C218.74 64.4191 218.075 63.6655 217.208 63.2314C216.34 62.7974 215.339 62.7168 214.413 63.0067C213.488 63.2966 212.711 63.9343 212.246 64.7855C211.781 65.6367 211.665 66.6351 211.922 67.5703H211.917Z" fill="#009688"/>
<path d="M198.433 78.5802C198.708 80.6205 203.217 86.0706 203.217 86.0706C203.217 86.0706 206.127 79.631 205.852 77.583C205.797 77.0868 205.644 76.6066 205.401 76.1705C205.158 75.7344 204.83 75.3514 204.437 75.0438C204.044 74.7363 203.593 74.5105 203.111 74.3797C202.63 74.2489 202.126 74.2158 201.632 74.2823C201.137 74.3488 200.661 74.5136 200.23 74.7669C199.8 75.0203 199.425 75.3571 199.127 75.7575C198.829 76.158 198.614 76.614 198.495 77.0987C198.376 77.5835 198.355 78.0872 198.433 78.5802Z" fill="#009688"/>
<path opacity="0.25" d="M245.38 53.3853C243.895 54.8237 236.987 56.3131 236.987 56.3131C236.987 56.3131 238.683 49.4526 240.167 48.0117C240.883 47.3409 241.835 46.9783 242.816 47.0019C243.797 47.0255 244.73 47.4334 245.413 48.1379C246.096 48.8423 246.476 49.7869 246.47 50.7683C246.463 51.7498 246.072 52.6895 245.38 53.3853Z" fill="black"/>
<path opacity="0.25" d="M241.473 65.7877C239.432 66.1906 232.835 63.6862 232.835 63.6862C232.835 63.6862 237.986 58.8405 240.014 58.4452C240.501 58.3372 241.004 58.3275 241.495 58.4167C241.985 58.5059 242.453 58.6922 242.871 58.9647C243.289 59.2372 243.648 59.5904 243.927 60.0036C244.206 60.4167 244.4 60.8815 244.497 61.3706C244.594 61.8597 244.593 62.3633 244.493 62.8518C244.393 63.3404 244.196 63.8039 243.914 64.2154C243.632 64.6269 243.271 64.9779 242.852 65.2479C242.433 65.5179 241.964 65.7014 241.473 65.7877Z" fill="black"/>
<path opacity="0.25" d="M227.252 79.2229C225.298 78.547 220.858 73.0485 220.858 73.0485C220.858 73.0485 227.744 71.4724 229.703 72.1482C230.173 72.3043 230.608 72.5524 230.982 72.8779C231.356 73.2035 231.662 73.6 231.881 74.0446C232.101 74.4893 232.23 74.973 232.261 75.4679C232.292 75.9627 232.224 76.4588 232.062 76.9273C231.899 77.3958 231.646 77.8274 231.315 78.197C230.985 78.5666 230.584 78.8669 230.137 79.0805C229.689 79.2941 229.204 79.4166 228.709 79.4411C228.213 79.4655 227.718 79.3914 227.252 79.2229Z" fill="black"/>
<path opacity="0.25" d="M214.184 86.9658C212.144 86.6291 206.849 81.9492 206.849 81.9492C206.849 81.9492 213.375 79.2305 215.413 79.5672C216.394 79.7285 217.27 80.2728 217.85 81.0804C218.429 81.888 218.664 82.8927 218.503 83.8735C218.342 84.8542 217.797 85.7307 216.99 86.3102C216.182 86.8896 215.177 87.1245 214.197 86.9632L214.184 86.9658Z" fill="black"/>
<path opacity="0.25" d="M227.073 58.3228C227.071 60.3911 230.822 66.3921 230.822 66.3921C230.822 66.3921 234.569 60.3988 234.569 58.333C234.582 57.8333 234.495 57.336 234.313 56.8705C234.13 56.405 233.857 55.9807 233.508 55.6227C233.159 55.2646 232.742 54.9801 232.281 54.7858C231.821 54.5915 231.326 54.4913 230.826 54.4913C230.326 54.4913 229.832 54.5915 229.371 54.7858C228.91 54.9801 228.493 55.2646 228.145 55.6227C227.796 55.9807 227.522 56.405 227.34 56.8705C227.158 57.336 227.071 57.8333 227.084 58.333L227.073 58.3228Z" fill="black"/>
<path opacity="0.25" d="M211.917 67.5703C212.534 69.5443 217.9 74.1477 217.9 74.1477C217.9 74.1477 219.685 67.3077 219.063 65.3337C218.74 64.4191 218.075 63.6655 217.208 63.2314C216.34 62.7974 215.339 62.7168 214.413 63.0067C213.488 63.2966 212.711 63.9343 212.246 64.7855C211.781 65.6367 211.665 66.6351 211.922 67.5703H211.917Z" fill="black"/>
<path opacity="0.25" d="M198.433 78.5802C198.708 80.6205 203.217 86.0706 203.217 86.0706C203.217 86.0706 206.127 79.631 205.852 77.583C205.797 77.0868 205.644 76.6066 205.401 76.1705C205.158 75.7344 204.83 75.3514 204.437 75.0438C204.044 74.7363 203.593 74.5105 203.111 74.3797C202.63 74.2489 202.126 74.2158 201.632 74.2823C201.137 74.3488 200.661 74.5136 200.23 74.7669C199.8 75.0203 199.425 75.3571 199.127 75.7575C198.829 76.158 198.614 76.614 198.495 77.0987C198.376 77.5835 198.355 78.0872 198.433 78.5802Z" fill="black"/>
<path d="M198.545 92.8851C198.545 92.8851 200.244 75.3795 210.358 66.0707C214.625 62.1912 217.518 57.0334 218.606 51.3705C219.101 48.6784 219.348 45.9466 219.343 43.2094" stroke="#535461" stroke-width="2" stroke-miterlimit="10"/>
<path d="M225.683 37.3028C224.918 39.2206 219.195 43.3828 219.195 43.3828C219.195 43.3828 217.966 36.4229 218.739 34.505C219.111 33.5841 219.833 32.8487 220.748 32.4606C221.662 32.0724 222.693 32.0634 223.614 32.4354C224.535 32.8074 225.27 33.53 225.658 34.4443C226.046 35.3585 226.055 36.3895 225.683 37.3104V37.3028Z" fill="#009688"/>
<path d="M227.14 50.2382C225.449 51.4266 218.392 51.8168 218.392 51.8168C218.392 51.8168 221.141 45.3032 222.832 44.1148C223.233 43.8146 223.69 43.598 224.177 43.4778C224.663 43.3575 225.168 43.336 225.663 43.4146C226.157 43.4932 226.631 43.6702 227.056 43.9352C227.481 44.2002 227.849 44.5479 228.137 44.9575C228.425 45.3671 228.629 45.8304 228.735 46.3199C228.841 46.8094 228.847 47.3152 228.754 47.8074C228.661 48.2996 228.47 48.7681 228.193 49.1852C227.916 49.6022 227.558 49.9594 227.14 50.2356V50.2382Z" fill="#009688"/>
<path d="M219.575 68.2895C217.515 68.463 211.225 65.2291 211.225 65.2291C211.225 65.2291 216.887 60.9955 218.948 60.8221C219.938 60.7389 220.92 61.0522 221.678 61.6931C222.437 62.334 222.91 63.25 222.993 64.2396C223.076 65.2291 222.763 66.2112 222.122 66.9698C221.481 67.7283 220.565 68.2012 219.575 68.2844V68.2895Z" fill="#009688"/>
<path d="M210.774 80.6562C208.772 81.1663 202.029 79.0571 202.029 79.0571C202.029 79.0571 206.892 73.9284 208.894 73.4081C209.856 73.1588 210.876 73.3016 211.732 73.805C212.588 74.3084 213.209 75.1312 213.458 76.0923C213.708 77.0535 213.565 78.0743 213.061 78.9302C212.558 79.7861 211.735 80.4069 210.774 80.6562Z" fill="#009688"/>
<path d="M210.953 49.2486C211.789 51.1384 217.64 55.1144 217.64 55.1144C217.64 55.1144 218.634 48.1163 217.798 46.2265C217.381 45.3423 216.635 44.6562 215.719 44.3148C214.803 43.9734 213.79 44.0038 212.896 44.3994C212.002 44.7951 211.298 45.5246 210.935 46.4321C210.572 47.3397 210.578 48.3532 210.953 49.2563V49.2486Z" fill="#009688"/>
<path d="M200.843 63.8417C202.207 65.3949 208.976 67.4301 208.976 67.4301C208.976 67.4301 207.834 60.4549 206.469 58.9017C206.147 58.5244 205.753 58.2148 205.31 57.991C204.868 57.7672 204.385 57.6337 203.89 57.5981C203.395 57.5624 202.898 57.6255 202.428 57.7836C201.958 57.9417 201.524 58.1917 201.151 58.519C200.778 58.8463 200.474 59.2444 200.257 59.6902C200.039 60.1361 199.912 60.6207 199.884 61.1159C199.855 61.6111 199.925 62.1071 200.09 62.5751C200.254 63.043 200.511 63.4736 200.843 63.8417Z" fill="#009688"/>
<path d="M192.965 79.3785C194.046 81.1382 200.374 84.2879 200.374 84.2879C200.374 84.2879 200.427 77.2209 199.354 75.4586C198.819 74.6449 197.989 74.0714 197.038 73.8597C196.088 73.648 195.093 73.8148 194.264 74.3246C193.434 74.8345 192.836 75.6474 192.596 76.5909C192.356 77.5344 192.493 78.5342 192.978 79.3785H192.965Z" fill="#009688"/>
<path d="M185.538 24.3291C185.962 22.776 186.472 21.2152 186.829 19.6416C186.4 21.2152 185.888 22.7811 185.538 24.3291Z" fill="url(#paint0_linear)"/>
<path d="M183.641 39.2895C183.605 39.2283 183.58 39.1671 183.552 39.111C183.552 39.0855 183.526 39.0651 183.516 39.0396C183.46 39.0658 183.403 39.0888 183.345 39.1084C183.233 39.1518 183.118 39.1926 183.001 39.2257C182.883 39.2589 182.835 39.2767 182.746 39.2972C182.672 39.3226 182.596 39.3423 182.519 39.3558L182.539 39.4017C182.633 39.3813 182.725 39.3635 182.82 39.338L182.845 39.6542C182.952 39.6542 183.052 39.6389 183.149 39.6389C183.195 39.6364 183.241 39.6364 183.286 39.6389C183.485 39.6389 183.659 39.6389 183.796 39.6389C183.743 39.5241 183.687 39.4043 183.641 39.2895ZM235.413 121.699C234.214 120.085 231.822 102.758 231.822 102.758C231.822 102.758 227.117 90.4368 228.4 85.5197C229.682 80.6026 224.895 68.0218 224.895 68.0218C224.895 68.0218 221.733 66.6471 221.562 64.6068C221.562 64.6068 208.65 60.5263 208.045 57.4659C207.556 54.9563 199.547 53.1558 196.671 52.587C195.793 49.0471 194.911 45.7444 194.261 43.9413C194.085 43.3803 193.919 42.8957 193.766 42.5131C192.667 39.7078 189.27 39.4527 186.806 39.6772C186.699 39.199 186.501 38.7461 186.222 38.3433C186.181 38.2049 186.1 38.0815 185.99 37.9888C185.937 37.9438 185.881 37.9028 185.821 37.8664C185.777 37.7837 185.718 37.7095 185.648 37.6471C185.578 37.584 185.501 37.5293 185.418 37.4839C185.359 37.4518 185.298 37.4237 185.235 37.3997C185.087 37.3434 184.934 37.3016 184.778 37.2747C184.597 37.2374 184.413 37.2135 184.227 37.2033C184.678 37.0064 185.079 36.713 185.403 36.3438C185.624 36.0847 185.788 35.7824 185.885 35.4563C185.966 35.1851 186.002 34.9026 185.992 34.6198C185.926 34.7363 185.849 34.8465 185.763 34.9488C185.87 33.819 185.273 32.6713 184.931 31.5466C184.517 30.0824 184.441 28.5434 184.707 27.0453C185.049 24.7857 185.895 22.5005 186.469 20.2001C186.471 20.1874 186.471 20.1746 186.469 20.1619C186.77 19.0194 186.956 17.8498 187.025 16.6704C187.125 14.291 186.515 11.9166 185.536 9.74878C184.666 7.82837 183.383 5.93856 181.42 5.15815C179.961 4.56902 178.326 4.66338 176.755 4.56647C173.23 4.34714 169.869 3.10767 166.518 1.98041C163.167 0.853157 159.719 -0.172085 156.191 0.024292C152.664 0.220669 149.035 1.92175 147.426 5.04338C146.916 6.01762 146.623 7.10152 146.013 8.01709C144.87 9.74368 142.825 10.6083 141.119 11.7993C139.413 12.9903 137.911 14.6812 137.293 16.6985C136.956 17.7853 136.909 18.9414 137.156 20.0522C137.211 20.3031 137.283 20.5501 137.37 20.7918C137.612 21.4657 137.989 22.0828 138.479 22.6051C138.849 22.9911 139.273 23.3203 139.739 23.5819C140.324 23.9062 140.95 24.1499 141.601 24.3062C141.578 24.3827 141.555 24.4643 141.529 24.5434C141.489 24.6734 141.453 24.7984 141.415 24.9387C141.331 25.2524 141.252 25.5712 141.185 25.8925C141.183 25.9154 141.183 25.9385 141.185 25.9614C140.872 27.412 140.715 28.892 140.716 30.376C140.715 31.0779 140.751 31.7793 140.823 32.4775C141.843 42.8268 150.387 50.9905 160.943 51.521C161.305 51.5388 161.67 51.549 162.039 51.549C162.208 51.549 162.374 51.549 162.549 51.549C162.715 51.7684 162.878 51.9928 163.034 52.2121C163.19 52.4315 163.332 52.6559 163.468 52.8752L163.098 52.4927L162.728 52.1535C162.628 52.2911 162.516 52.4199 162.394 52.5386C162.153 52.4538 161.907 52.3839 161.657 52.3294C160.598 52.0948 158.987 52.0081 156.865 52.6482C154.914 53.2323 152.529 54.4335 149.739 56.7161L136.143 64.8772L128.788 69.3505L126.138 75.8284C126.138 75.8284 124.146 83.5253 121.93 92.3445C121.843 92.37 121.759 92.3955 121.675 92.4261C121.496 92.4056 121.315 92.3954 121.134 92.3955C119.848 92.3925 118.611 92.8879 117.683 93.7777C116.755 94.6674 116.208 95.8823 116.156 97.1672C111.749 102.523 111.499 107.879 112.535 110.337C112.628 110.568 112.746 110.787 112.886 110.993C113.565 111.972 114.832 114.497 116.118 117.187C116.085 117.409 116.064 117.595 116.054 117.736C116.052 117.782 116.052 117.828 116.054 117.873C116.054 117.873 116.819 129.429 114.269 132.742C113.71 133.464 113.794 134.413 114.269 135.463C115.978 139.243 122.733 144.29 122.733 144.29C122.733 144.29 130.836 144.247 135.35 143.754C135.337 144.208 135.327 144.66 135.317 145.101C135.215 149.559 135.215 153.295 135.215 153.295L135.047 157.97C135.047 157.97 133.516 167.822 132.751 170.538C132.269 172.242 132.825 188.016 133.31 199.612H213.141C214.079 192.752 212.756 171.908 212.756 171.908C212.756 171.908 211.498 166.519 211.452 161.821C211.45 161.816 211.449 161.81 211.449 161.805C211.449 161.799 211.45 161.793 211.452 161.788C211.452 161.377 211.452 160.977 211.468 160.584L212.047 160.564L213.087 160.528H213.182C213.182 160.528 213.207 160.431 213.266 160.273C213.403 159.879 213.591 159.505 213.824 159.159C214.268 158.503 214.962 157.86 216.005 157.817C216.581 157.794 217.474 157.327 218.481 156.639C218.488 156.64 218.495 156.64 218.502 156.639C221.213 154.805 224.796 151.421 225.666 150.865C226.862 150.1 232.59 144.999 232.59 144.999C232.59 144.999 233.444 143.918 234.355 142.614L234.388 142.569C235.52 140.936 236.724 138.985 236.428 138.371C235.918 137.269 236.77 134.634 236.77 134.634C239.43 129.766 236.612 123.313 235.413 121.699ZM186.097 43.2553C186.121 43.3314 186.137 43.4102 186.143 43.4899C186.079 43.4058 186.015 43.3165 185.952 43.2349L185.89 43.1533L185.847 43.0921L185.944 42.9595C185.944 42.9595 185.944 42.9595 185.944 42.9773C186.011 43.06 186.063 43.1542 186.097 43.2553ZM185.24 40.9957C184.962 41.0518 184.743 41.1028 184.6 41.1411C184.419 40.8197 184.245 40.4984 184.09 40.1719C184.499 40.4091 184.884 40.685 185.24 40.9957ZM184.76 41.3986C184.76 41.3936 184.76 41.3884 184.76 41.3833L184.781 41.3986C184.885 41.4675 184.987 41.5338 185.082 41.6027C185.166 41.6639 185.243 41.7225 185.319 41.7837C185.268 41.873 185.212 41.9648 185.156 42.0388C185.067 41.8985 184.982 41.7633 184.901 41.6231C184.85 41.567 184.804 41.4905 184.76 41.3986ZM183.23 38.2515C183.723 38.2029 184.219 38.2029 184.712 38.2515C184.781 38.2515 184.842 38.2643 184.903 38.2745C185.042 38.2958 185.177 38.3309 185.309 38.379C185.61 38.8007 185.796 39.294 185.847 39.8098L185.709 39.8302L185.574 39.8557C185.319 39.899 185.064 39.9424 184.865 39.9832L184.61 40.0368C184.271 40.1107 184.074 40.1668 184.067 40.1694C184.034 40.1005 184.001 40.0368 183.965 39.9704C183.909 39.8608 183.85 39.7486 183.799 39.6389C183.748 39.5292 183.682 39.4043 183.628 39.2895C183.592 39.2283 183.567 39.1671 183.539 39.111C183.539 39.0855 183.513 39.0651 183.503 39.0396C183.488 39.0125 183.476 38.9844 183.465 38.9554C183.309 38.6392 183.167 38.3229 183.029 38.0118C183.014 37.9812 183.001 37.948 182.988 37.9174L183.182 37.9047V37.971L183.23 38.2515ZM122.381 196.46C122.361 192.663 122.086 188.554 121.321 184.698C120.994 183.058 120.657 181.418 120.316 179.806C120.229 179.403 120.145 179.005 120.061 178.608L119.275 178.712H119.204C117.061 168.61 114.822 159.709 114.822 159.709C114.822 159.709 110.374 142.727 110.89 141.372C110.956 141.196 110.872 140.722 110.683 140.026C109.607 136.165 105.113 125.525 103.542 121.888C103.542 121.872 103.529 121.855 103.524 121.842C103.269 121.232 103.085 120.822 103.029 120.702L103.399 115.275L103.42 114.948L103.468 114.255L103.448 114.237L103.468 113.915C103.468 113.915 99.5864 110.732 93.0116 108.435C92.7566 108.343 92.4862 108.254 92.2184 108.167C92.5474 105.971 92.9836 103.492 93.5523 101.077C93.6058 100.835 93.6645 100.6 93.7257 100.363C93.7793 100.126 93.8405 99.896 93.9017 99.664C93.9986 99.2865 94.1032 98.9142 94.2103 98.5469C94.5648 98.4347 94.9142 98.3097 95.2585 98.1771L95.3911 98.1261C99.6325 96.4757 103.132 93.3443 105.242 89.3117C107.352 85.2792 107.93 80.6187 106.868 76.1931C106.262 73.6832 105.144 71.3257 103.583 69.2689C103.465 69.1108 103.341 68.9526 103.216 68.7971C103.091 68.6415 102.94 68.4681 102.8 68.3099C103.537 66.6344 104.407 65.0404 104.478 63.4107C104.491 63.2043 104.491 62.9974 104.478 62.791V62.7655C104.384 61.7173 103.919 60.6563 102.838 59.5418C101.259 57.9071 99.0126 57.0782 96.7657 56.6804C94.5189 56.2825 92.2286 56.2723 89.969 56.0045C86.2226 55.5556 82.573 54.4003 78.8265 54.0458C74.2119 53.6185 69.5659 54.41 65.353 56.3412C62.5655 57.6163 59.7423 59.8453 59.5739 62.9032C59.4362 65.4306 61.196 67.8534 60.7522 70.3502C60.311 72.8037 57.8117 74.7343 58.031 77.2158C58.1151 78.1849 58.6125 79.052 59.2348 79.8248C59.449 80.0798 59.676 80.3349 59.9106 80.5899C60.8185 81.5514 61.8183 82.4746 62.3258 83.686C62.3462 83.737 62.3666 83.788 62.3844 83.839C62.8154 85.0352 62.6216 86.5475 61.5556 87.2336C61.5615 87.2381 61.5659 87.2443 61.5683 87.2514C61.5836 87.2718 61.5989 87.2871 61.6117 87.3075C61.6132 87.3034 61.6132 87.2989 61.6117 87.2948C61.9897 87.7429 62.4992 88.0606 63.0679 88.2027L63.2847 88.269C63.1087 88.4603 62.943 88.6592 62.7746 88.8683L62.665 89.0137C62.3839 89.3916 62.1283 89.7878 61.8999 90.1996C61.7698 90.4291 61.6448 90.6587 61.5403 90.8882C61.1907 91.5879 60.9376 92.3317 60.7879 93.0994C60.515 94.7877 60.9001 96.5474 60.487 98.2001C59.9769 100.24 58.3625 101.806 57.4521 103.701C55.728 107.272 56.7048 111.462 57.0517 115.405C57.5235 120.76 56.7584 126.139 55.9958 131.459C55.5911 134.288 55.1865 137.12 54.7818 139.954C53.7617 147.068 52.7416 154.182 51.7214 161.296C51.3491 163.902 50.9079 166.652 49.1711 168.664H49.1889C49.1889 168.664 49.1889 168.679 49.1711 168.684C49.6924 168.912 50.2469 169.055 50.8135 169.107C53.0808 169.334 55.4832 168.238 57.5235 167.039C59.1392 166.105 60.6694 165.031 62.0962 163.828C61.8871 164.593 61.6627 165.427 61.423 166.325C61.4237 166.334 61.4237 166.342 61.423 166.351C58.5436 177.317 53.9122 197.421 53.9122 197.421C53.9122 197.421 53.4914 198.296 52.9456 199.599H124.865C124.024 198.579 123.241 197.603 122.629 196.814L122.381 196.46ZM69.1301 95.058C69.148 95.0274 69.1607 94.9994 69.1786 94.9713C69.1786 95.0529 69.1786 95.132 69.1786 95.2085C69.1786 95.285 69.1786 95.3539 69.1786 95.4253C69.1786 95.4967 69.1786 95.489 69.1786 95.5247C69.1786 95.5605 69.1786 95.5247 69.1786 95.5247C69.1786 95.6293 69.1556 95.7339 69.1378 95.8384C69.1378 95.8384 69.1378 95.8512 69.1378 95.8614L69.3928 95.9558L69.6886 96.0782C71.4365 96.7685 73.2064 97.3933 74.9985 97.9527C75.1821 98.0113 75.3683 98.0675 75.5544 98.121L75.5927 98.4372C75.6386 98.7611 75.682 99.0901 75.7228 99.4191C75.7228 99.4191 75.7228 99.4344 75.7228 99.4446C75.8375 100.355 75.9498 101.263 76.0492 102.151C76.0492 102.151 71.3668 100.365 71.4254 103.076C71.4228 103.125 71.4228 103.173 71.4254 103.222C71.4202 103.286 71.4202 103.351 71.4254 103.416C71.4688 105.527 72.1293 106.779 72.2619 107.422C72.254 107.449 72.24 107.473 72.2211 107.494C72.108 107.74 72.069 108.014 72.1089 108.282C72.1045 108.738 72.1403 109.194 72.216 109.643C72.0783 109.728 71.9432 109.812 71.808 109.899C71.706 109.962 71.6091 110.034 71.5096 110.105C70.8839 107.935 70.0654 105.825 69.0638 103.801C68.3625 102.357 67.5744 100.852 67.582 99.2687C67.582 99.1666 67.5821 99.0621 67.5948 98.9575C67.6232 98.4985 67.7107 98.0451 67.8549 97.6084C67.9136 97.4426 67.9774 97.2794 68.0488 97.1187C68.2154 96.7369 68.4019 96.3641 68.6073 96.0017C68.7399 95.7619 68.8802 95.5247 69.0153 95.285C69.0587 95.2136 69.0995 95.1396 69.1403 95.0682L69.1301 95.058ZM183.641 39.2895C183.605 39.2283 183.58 39.1671 183.552 39.111C183.552 39.0855 183.526 39.0651 183.516 39.0396C183.46 39.0658 183.403 39.0888 183.345 39.1084C183.233 39.1518 183.118 39.1926 183.001 39.2257C182.883 39.2589 182.835 39.2767 182.746 39.2972L182.519 39.3558L182.539 39.4017C182.633 39.3813 182.725 39.3635 182.82 39.338L182.845 39.6542C182.952 39.6542 183.052 39.6389 183.149 39.6389H183.286C183.485 39.6389 183.659 39.6389 183.796 39.6389C183.743 39.5241 183.687 39.4043 183.641 39.2895Z" fill="url(#paint1_linear)"/>
<path d="M127.916 76.749L126.385 77.4249C126.385 77.4249 116.411 116.175 116.411 119.307C116.411 122.439 137.561 139.865 137.561 139.865L140.861 117.59C140.861 117.59 136.123 66.5094 127.916 76.749Z" fill="#E8F5FF"/>
<path d="M174.309 64.4232L165.472 59.8122C164.977 57.7021 164.099 55.7009 162.881 53.9081C161.588 52.0413 159.869 50.2076 157.727 49.2512C152.312 46.8232 180.629 34.0791 180.629 34.0791C181.075 35.6101 181.6 37.1168 182.202 38.5933C183.661 42.1943 186.082 46.8513 189.201 48.1775C194.503 50.4345 174.309 64.4232 174.309 64.4232Z" fill="#FFC1C7"/>
<path opacity="0.1" d="M182.202 38.5933C180.993 42.8485 178.476 46.6161 175.01 49.3641C171.543 52.1121 167.3 53.7016 162.881 53.9081C161.588 52.0413 159.869 50.2076 157.727 49.2512C152.312 46.8232 180.629 34.0791 180.629 34.0791C181.075 35.6101 181.6 37.1168 182.202 38.5933Z" fill="black"/>
<path d="M182.998 32.1587C182.999 36.332 181.763 40.4119 179.445 43.8824C177.127 47.3528 173.832 50.0579 169.976 51.6556C166.121 53.2532 161.878 53.6716 157.785 52.8579C153.692 52.0441 149.932 50.0348 146.981 47.084C144.03 44.1332 142.02 40.3735 141.206 36.2803C140.391 32.1872 140.809 27.9446 142.406 24.089C144.004 20.2334 146.708 16.938 150.178 14.6197C153.649 12.3014 157.728 11.0642 161.902 11.0648C164.675 11.0519 167.424 11.5888 169.99 12.6443C172.555 13.6997 174.885 15.253 176.847 17.2143C178.808 19.1756 180.362 21.506 181.418 24.0711C182.474 26.6361 183.011 29.3849 182.998 32.1587Z" fill="#FFC1C7"/>
<path d="M186.043 61.7147L180.29 75.1398L175.215 84.0507H158.969L154.23 71.8677L156.151 59.2333H168.558L176.569 58.7818L179.275 57.879L181.019 58.8686L186.043 61.7147Z" fill="#575A89"/>
<path opacity="0.1" d="M184.062 43.8189C184.062 43.8189 187.65 44.584 184.437 47.2185C181.223 49.8531 170.137 58.231 170.137 58.231C170.137 58.231 174.031 61.6994 173.225 65.7621L186.127 58.5702L188.423 47.063C188.423 47.063 188.68 43.6047 184.062 43.8189Z" fill="black"/>
<path opacity="0.1" d="M172.674 58.2309L164.467 59.5852C164.467 59.5852 166.161 65.8463 165.314 67.6239C165.288 67.6791 165.267 67.7363 165.25 67.7948L161.902 76.846L164.411 83.9538L173.098 72.1074L170.137 67.6239C170.137 67.6239 173.266 63.477 175.128 62.0386C176.99 60.6002 172.674 58.2309 172.674 58.2309Z" fill="black"/>
<path d="M172.674 57.8816L164.467 59.2332C164.467 59.2332 166.161 65.4944 165.314 67.272C165.288 67.3272 165.267 67.3843 165.25 67.4428L161.902 76.494L164.411 83.6019L173.098 71.7478L170.137 67.2643C170.137 67.2643 173.266 63.1174 175.128 61.679C176.99 60.2406 172.674 57.8816 172.674 57.8816Z" fill="#DCE6F2"/>
<path d="M184.406 43.1431C184.406 43.1431 187.994 43.9082 184.778 46.5427C181.562 49.1772 170.137 58.231 170.137 58.231C170.137 58.231 174.368 61.0236 173.564 65.0837L186.467 57.8943L188.762 46.3871C188.762 46.3871 189.017 42.9288 184.406 43.1431Z" fill="#575A89"/>
<path opacity="0.1" d="M163.445 54.7064C163.445 54.7064 164.228 56.1703 167.683 58.8099C167.683 58.8099 161.93 61.8703 164.131 66.1728L155.329 63.8774L153.975 59.6464L163.445 54.7064Z" fill="black"/>
<path d="M163.105 54.3697C163.105 54.3697 163.888 55.8336 167.344 58.4732C167.344 58.4732 161.591 61.5184 163.791 65.8336L154.993 63.5382L153.639 59.3098L163.105 54.3697Z" fill="#575A89"/>
<path opacity="0.1" d="M186.043 61.7147L180.29 75.1398L175.225 84.0507H158.969L154.23 71.8677L156.148 59.2332H159.599C159.543 62.1815 160.619 65.6448 160.55 66.9328C160.433 69.0495 163.707 80.47 163.707 80.47C163.707 80.47 170.56 69.3862 173.266 68.3992C174.967 67.7795 178.571 62.6227 181.017 58.8685L186.043 61.7147Z" fill="black"/>
<path d="M208.708 132.362L208.124 133.097C208.124 133.097 212.355 154.333 211.185 159.156C210.986 160.025 210.872 160.912 210.845 161.803V161.842C210.639 166.748 212.121 173.117 212.121 173.117C212.121 173.117 213.304 191.887 212.631 199.607H133.412C132.948 188.192 132.448 173.402 132.902 171.762C133.667 169.056 135.197 159.24 135.197 159.24L135.365 154.588C135.365 154.588 135.365 150.092 135.503 145.083C135.562 142.831 135.648 140.467 135.773 138.371C135.934 135.734 136.158 133.512 136.467 132.421C136.657 131.593 136.766 130.749 136.793 129.901C136.793 129.822 136.793 129.74 136.809 129.659C136.809 129.404 136.834 129.128 136.844 128.845C136.844 128.766 136.844 128.687 136.844 128.59C136.893 126.948 136.875 124.999 136.822 122.979C136.822 122.87 136.822 122.757 136.822 122.645C136.778 121.13 136.714 119.585 136.643 118.116C136.421 113.525 136.133 109.643 136.133 109.643L126.403 77.4071L129.025 70.9496L136.301 66.4916L149.754 58.3687C156.316 52.9747 160.637 53.6225 162.284 54.2142C162.444 54.2688 162.601 54.3326 162.754 54.4054C162.805 54.4309 162.845 54.4513 162.884 54.4743C162.936 54.4991 162.986 54.5281 163.034 54.561C162.583 54.778 162.191 55.1009 161.891 55.5021C161.554 55.9586 161.314 56.4794 161.185 57.0323C161.099 57.375 161.038 57.7237 161.004 58.0754C160.971 58.4452 160.958 58.8277 160.958 59.2128C160.976 60.0574 161.049 60.8999 161.175 61.7351C161.175 61.7504 161.175 61.7708 161.175 61.7912C161.259 62.388 161.364 62.9721 161.466 63.5204C161.464 63.5297 161.464 63.5391 161.466 63.5484C161.583 64.1886 161.7 64.7803 161.779 65.2903C161.795 65.3821 161.807 65.4663 161.82 65.5454C161.876 65.8824 161.903 66.2238 161.899 66.5655C161.928 67.3906 162.039 68.2108 162.231 69.0138C162.297 69.3505 162.374 69.7101 162.458 70.085C162.572 70.5951 162.697 71.151 162.833 71.7172C162.907 72.0284 162.986 72.3497 163.067 72.6685C163.098 72.796 163.131 72.9235 163.162 73.0536L163.213 73.2551C163.756 75.4152 164.345 77.5652 164.707 78.8659C164.921 79.631 165.056 80.1028 165.056 80.1028C165.056 80.1028 168.897 73.8927 171.963 70.3579C172.009 70.3069 172.05 70.2584 172.093 70.2125C172.396 69.8631 172.695 69.5443 172.98 69.2638C173.605 68.6415 174.166 68.1977 174.618 68.0345C174.714 67.9992 174.807 67.9557 174.896 67.9044C176.151 67.1929 178.175 64.6094 180.07 61.9035C180.257 61.6484 180.438 61.3704 180.621 61.1078C181.042 60.5008 181.45 59.8912 181.835 59.3072C182.131 58.8609 182.414 58.4273 182.682 58.0142C183.957 56.03 184.855 54.5508 184.855 54.5508L186.625 54.4717L186.933 54.4564H187.14L195.176 54.0841C195.176 54.0841 195.523 54.1428 196.094 54.2575C196.125 54.2575 196.155 54.2575 196.189 54.2779C199.04 54.8441 206.961 56.637 207.446 59.1236C208.038 62.1687 220.815 66.2314 220.815 66.2314C220.983 68.2717 224.112 69.6157 224.112 69.6157C224.112 69.6157 228.851 82.138 227.583 87.0448C226.331 91.8905 230.843 103.877 230.963 104.214L230.098 105.305L208.708 132.362Z" fill="#E8F5FF"/>
<path opacity="0.1" d="M184.059 42.9288C184.059 42.9288 191.881 40.71 193.659 45.2777C195.436 49.8454 199.412 68.2921 199.412 68.2921C199.412 68.2921 189.088 70.238 186.383 68.2921C184.795 67.1372 182.831 66.6235 180.881 66.8537L175.044 70.8297L173.32 70.3196C173.32 70.3196 182.659 56.4355 184.689 51.7173C186.719 46.9992 187.405 44.8901 184.059 42.9288Z" fill="black"/>
<path d="M183.72 41.9087C183.72 41.9087 191.547 39.6899 193.332 44.2576C195.117 48.8253 199.086 67.272 199.086 67.272C199.086 67.272 188.765 69.2179 186.056 67.272C184.47 66.117 182.506 65.6033 180.557 65.8336L174.715 69.8096L172.991 69.2995C172.991 69.2995 182.33 55.4154 184.36 50.6972C186.39 45.9791 187.066 43.875 183.72 41.9087Z" fill="#E8F5FF"/>
<path opacity="0.1" d="M131.216 115.499C131.216 115.499 137.054 116.937 138.155 120.238C139.257 123.538 133.84 123.622 133.84 123.622C133.84 123.622 130.54 117.784 131.216 115.499Z" fill="black"/>
<path opacity="0.1" d="M152.96 139.865C152.96 139.865 138.663 169.141 141.963 171.933C145.263 174.726 152.96 139.865 152.96 139.865Z" fill="black"/>
<path opacity="0.1" d="M172.674 118.292C172.674 118.292 184.097 146.728 181.812 151.12C179.527 155.512 186.719 151.12 186.719 151.12L172.674 118.292Z" fill="black"/>
<path d="M188.581 146.381C188.581 146.381 149.999 148.243 161.254 160.258C172.509 172.272 195.605 160.768 195.605 160.768L188.581 146.381Z" fill="#FFC1C7"/>
<path opacity="0.1" d="M182.998 32.1587C183.002 34.9259 182.458 37.6665 181.399 40.2229C181.045 40.2637 180.69 40.2892 180.348 40.3045C179.838 39.1849 180.111 37.8919 180.121 36.6601C180.132 35.4283 179.678 33.9797 178.492 33.6481C176.128 32.9825 174.495 37.4022 172.164 36.604C170.379 35.997 170.846 33.2885 169.818 31.7251C169.004 30.4882 167.375 30.1388 166.107 29.3635C163.411 27.7083 163.493 25.0611 162.241 22.5566C160.93 19.9323 158.16 20.7076 155.755 22.2557C153.929 23.434 152.353 25.0126 150.4 25.9511C148.709 26.7673 146.809 27.0631 144.934 27.1065C143.78 27.1512 142.626 27.0292 141.507 26.7443C142.823 21.7951 145.895 17.4936 150.149 14.6421C154.403 11.7905 159.549 10.5835 164.627 11.2463C169.705 11.909 174.369 14.3961 177.749 18.2439C181.129 22.0917 182.993 27.0374 182.996 32.1587H182.998Z" fill="black"/>
<path d="M155.763 21.5798C153.934 22.7581 152.361 24.3342 150.407 25.2779C148.716 26.0914 146.816 26.3873 144.942 26.4306C142.647 26.4816 140.175 26.0787 138.607 24.4209C137.166 22.8907 136.822 20.5368 137.431 18.5296C138.041 16.5225 139.502 14.8571 141.218 13.6508C142.935 12.4445 144.927 11.6105 146.064 9.88394C146.666 8.97091 146.957 7.89466 147.457 6.92298C149.056 3.8141 152.652 2.13087 156.128 1.92174C159.604 1.71261 163.049 2.74805 166.36 3.87021C169.67 4.99236 173.006 6.22673 176.5 6.45881C178.056 6.55573 179.673 6.45881 181.116 7.04795C183.057 7.836 184.329 9.72071 185.197 11.6386C186.168 13.8013 186.773 16.1629 186.671 18.5245C186.456 23.5666 183.126 28.5143 184.59 33.3446C184.977 34.6325 185.704 35.9536 185.316 37.2416C184.75 39.1212 182.325 39.5496 180.364 39.6389C179.854 38.5193 180.127 37.2237 180.137 35.9944C180.147 34.7652 179.693 33.314 178.51 32.9825C176.143 32.3219 174.511 36.734 172.185 35.9383C170.412 35.3288 170.871 32.6229 169.841 31.0595C169.027 29.82 167.395 29.4732 166.13 28.6979C163.434 27.0427 163.516 24.3954 162.264 21.891C160.943 19.2539 158.171 20.0292 155.763 21.5798Z" fill="#99607E"/>
<path d="M118.352 118.628L116.406 119.307C116.406 119.307 117.171 130.814 114.621 134.114C112.07 137.414 122.996 145.619 122.996 145.619C122.996 145.619 137.972 145.535 138.395 144.344C138.818 143.153 137.63 123.023 137.63 123.023C137.63 123.023 129.591 119.891 130.267 114.9C130.267 114.9 127.814 126.659 124.177 126.152C120.54 125.644 116.411 122.607 118.352 118.628Z" fill="#E8F5FF"/>
<path opacity="0.1" d="M124.843 129.712C127.678 129.712 129.976 127.61 129.976 125.017C129.976 122.424 127.678 120.322 124.843 120.322C122.007 120.322 119.709 122.424 119.709 125.017C119.709 127.61 122.007 129.712 124.843 129.712Z" fill="black"/>
<path d="M130.456 118.968C130.456 118.968 129.436 87.8329 120.555 94.7698C111.675 101.707 111.588 110.003 113.279 112.454C114.97 114.905 120.392 127.175 120.392 127.175C121.24 127.666 122.193 127.95 123.172 128.002C124.151 128.055 125.128 127.874 126.024 127.476C126.919 127.078 127.708 126.473 128.325 125.712C128.942 124.95 129.37 124.053 129.573 123.094L130.456 118.968Z" fill="#FFC1C7"/>
<path opacity="0.1" d="M185.852 40.1031C185.811 39.9663 185.731 39.8442 185.623 39.7511C185.184 39.3507 184.24 39.2104 182.817 39.3329L182.876 40.0062C184.773 39.8429 185.148 40.2204 185.197 40.2841V40.3479L185.255 40.4321C185.492 40.75 185.659 41.1139 185.747 41.5004C185.835 41.8868 185.841 42.2874 185.765 42.6764C185.35 44.7549 182.797 46.4101 182.771 46.4279L182.71 46.4636L182.672 46.5223C181.57 48.1571 175.339 52.7707 173.71 53.9642L173.567 53.801C172.838 54.4335 166.426 60.0468 166.079 62.1968C165.855 63.5459 164.335 64.0687 163.784 64.2141C163.202 63.7729 161.315 62.2707 160.333 60.5875C159.413 59.0037 163.118 55.9127 163.445 54.7064L162.935 54.1836C162.881 54.3774 158.122 58.8252 159.446 61.0976C160.507 62.9211 162.445 64.4819 163.123 64.997C162.907 66.9659 161.557 78.5267 159.484 81.2657C156.908 84.6705 154.743 101.829 154.983 107.82C155.194 113.143 153.804 123.196 149.163 127.514C148.359 128.294 147.39 128.883 146.327 129.236C145.264 129.589 144.135 129.698 143.024 129.554H142.968H142.912C142.845 129.554 136.113 130.243 130.456 125.474C125.827 121.579 123.205 115.224 122.659 106.578H122.547L122.501 104.061C123.756 103.865 124.887 103.19 125.655 102.178C126.423 101.167 126.769 99.8966 126.62 98.635C126.471 97.3735 125.839 96.2188 124.857 95.4135C123.875 94.6081 122.618 94.2149 121.352 94.3163C120.086 94.4178 118.908 95.0061 118.067 95.9576C117.225 96.9091 116.785 98.1498 116.839 99.4189C116.893 100.688 117.437 101.887 118.356 102.763C119.276 103.64 120.499 104.126 121.769 104.119H121.825L121.871 106.621L121.647 106.637C122.208 115.563 124.962 122.166 129.808 126.244C133.491 129.296 138.196 130.835 142.97 130.551C143.309 130.588 143.65 130.607 143.991 130.607C146.179 130.619 148.285 129.772 149.856 128.248C154.745 123.696 156.232 113.273 156 107.769C155.745 101.421 158.017 84.8796 160.298 81.8676C162.532 78.9118 163.886 67.3944 164.123 65.1628C164.931 64.9358 166.76 64.2192 167.071 62.3574C167.296 61.0108 171.578 56.8614 174.212 54.5636L174.133 54.4717C175.551 53.4363 179.961 50.1719 182.146 48.0755C182.825 47.4251 183.498 46.7748 184.202 46.155C185.049 45.4052 186.125 44.2142 186.408 42.8064C186.505 42.3417 186.505 41.8622 186.409 41.3973C186.314 40.9324 186.124 40.492 185.852 40.1031Z" fill="black"/>
<path d="M163.037 64.8364C162.929 64.7624 160.389 62.944 159.117 60.7558C157.796 58.4834 162.555 54.0382 162.606 53.8443L163.116 54.3672C162.792 55.5709 159.086 58.6645 160.007 60.2457C161.167 62.2427 163.61 63.9896 163.636 64.0075L163.037 64.8364Z" fill="#353146"/>
<path d="M173.378 54.459L172.98 53.9107C173.062 53.852 181.073 48.0576 182.335 46.1831L182.376 46.127L182.435 46.0887C182.46 46.0709 185.013 44.4182 185.429 42.3372C185.505 41.9486 185.5 41.5483 185.412 41.1621C185.324 40.7759 185.156 40.4125 184.919 40.0954L184.86 40.0087V39.9475C184.809 39.8812 184.434 39.5063 182.537 39.6695L182.478 38.9937C183.904 38.8712 184.845 39.0115 185.283 39.4119C185.392 39.5059 185.473 39.6288 185.515 39.7664C185.791 40.1542 185.985 40.5943 186.084 41.0597C186.183 41.5251 186.186 42.0058 186.092 42.4723C185.809 43.8827 184.735 45.0737 183.886 45.8209C183.184 46.4407 182.509 47.0961 181.833 47.7414C179.27 50.1973 173.659 54.2575 173.378 54.459Z" fill="#E8F5FF"/>
<path d="M122.172 103.173L121.496 103.185L121.572 107.293L122.247 107.281L122.172 103.173Z" fill="#E8F5FF"/>
<path d="M121.44 103.796C124.166 103.796 126.375 101.586 126.375 98.8606C126.375 96.1351 124.166 93.9257 121.44 93.9257C118.715 93.9257 116.505 96.1351 116.505 98.8606C116.505 101.586 118.715 103.796 121.44 103.796Z" fill="#009688"/>
<path d="M121.44 102.959C123.704 102.959 125.539 101.124 125.539 98.8606C125.539 96.5971 123.704 94.7622 121.44 94.7622C119.177 94.7622 117.342 96.5971 117.342 98.8606C117.342 101.124 119.177 102.959 121.44 102.959Z" fill="#E8F5FF"/>
<path d="M143.669 130.278C143.328 130.279 142.988 130.261 142.649 130.225C137.875 130.506 133.171 128.967 129.487 125.917C124.641 121.837 121.892 115.242 121.326 106.308L122.346 106.244C122.892 114.89 125.513 121.248 130.145 125.139C135.801 129.896 142.532 129.22 142.598 129.22H142.654H142.71C143.821 129.363 144.951 129.254 146.014 128.901C147.077 128.548 148.047 127.959 148.852 127.18C153.491 122.862 154.881 112.808 154.669 107.486C154.414 101.49 156.579 84.3312 159.158 80.9291C161.415 77.9477 162.815 64.5099 162.83 64.3747L162.868 63.9922L163.246 63.9259C163.269 63.9259 165.472 63.5076 165.748 61.8601C166.105 59.7127 172.506 54.0994 173.233 53.4643L173.899 54.2294C171.254 56.5248 166.972 60.6767 166.758 62.0259C166.446 63.8927 164.618 64.6068 163.812 64.8313C163.557 67.0654 162.213 78.5802 159.986 81.5361C157.706 84.548 155.434 101.09 155.689 107.437C155.908 112.941 154.437 123.367 149.548 127.917C147.974 129.444 145.863 130.292 143.669 130.278Z" fill="#353146"/>
<g opacity="0.1">
<path opacity="0.1" d="M185.171 26.1297C185.589 24.5842 186.094 23.0285 186.446 21.4625C186.025 23.0361 185.518 24.5842 185.171 26.1297Z" fill="black"/>
<path opacity="0.1" d="M180.904 38.2745C180.394 37.1549 180.667 35.8593 180.677 34.63C180.688 33.4007 180.234 31.9623 179.05 31.618C176.684 30.9575 175.051 35.3722 172.725 34.5739C170.94 33.9644 171.412 31.2584 170.382 29.6951C169.568 28.4556 167.938 28.1088 166.673 27.3335C163.975 25.6783 164.057 23.031 162.807 20.5266C161.494 17.8997 158.726 18.675 156.319 20.2256C154.49 21.4039 152.917 22.9826 150.963 23.9236C149.272 24.7372 147.372 25.033 145.498 25.0764C143.215 25.13 140.731 24.7244 139.163 23.0667C137.954 21.7915 137.518 19.9221 137.768 18.17C137.724 18.2899 137.686 18.4098 137.648 18.5296C137.036 20.5368 137.393 22.8958 138.824 24.421C140.392 26.0787 142.876 26.4816 145.159 26.4306C147.036 26.3873 148.933 26.0914 150.627 25.2779C152.585 24.3342 154.159 22.7581 155.982 21.5799C158.39 20.0292 161.16 19.2539 162.47 21.8808C163.72 24.3853 163.641 27.0325 166.337 28.6877C167.612 29.4528 169.231 29.8098 170.047 31.0493C171.068 32.6178 170.616 35.3186 172.391 35.9281C174.715 36.7239 176.347 32.3117 178.714 32.9723C179.897 33.3038 180.353 34.7575 180.341 35.9842C180.328 37.211 180.063 38.5091 180.568 39.6287C182.529 39.5394 184.954 39.1186 185.523 37.2314C185.601 36.9605 185.637 36.6792 185.63 36.3974C184.801 37.8282 182.669 38.1954 180.904 38.2745Z" fill="black"/>
</g>
<path opacity="0.1" d="M226.997 101.115L229.958 104.247C229.958 104.247 232.327 121.505 233.51 123.12C234.694 124.734 237.489 131.156 234.865 135.978C234.865 135.978 234.018 138.603 234.525 139.702C235.033 140.801 230.72 146.302 230.72 146.302C230.72 146.302 225.051 151.377 223.865 152.14C222.679 152.903 216.421 158.993 214.306 159.077C212.192 159.161 211.501 161.785 211.501 161.785L199.57 162.209C199.57 162.209 192.98 161.864 191.547 162.795C191.547 162.795 192.312 152.727 184.949 146.126L194.34 142.742C194.34 142.742 197.895 141.212 198.994 139.613C199.685 138.632 200.666 137.893 201.799 137.498C201.799 137.498 204.421 135.637 204.505 134.622C204.589 133.607 207.711 132.362 207.711 132.362L205.944 117.277L206.875 92.2322C206.875 92.2322 209.836 71.248 216.097 72.4339C222.358 73.6198 226.997 101.115 226.997 101.115Z" fill="black"/>
<path d="M228.017 101.115L230.978 104.247C230.978 104.247 233.347 121.505 234.531 123.12C235.714 124.734 238.509 131.156 235.885 135.978C235.885 135.978 235.041 138.603 235.548 139.702C236.056 140.801 231.74 146.302 231.74 146.302C231.74 146.302 226.071 151.377 224.885 152.14C223.699 152.903 217.441 158.993 215.326 159.077C213.212 159.161 212.521 161.785 212.521 161.785L200.591 162.209C200.591 162.209 193.995 161.864 192.567 162.795C192.567 162.795 193.332 152.727 185.969 146.126L195.36 142.742C195.36 142.742 198.915 141.212 200.014 139.613C200.706 138.632 201.687 137.893 202.82 137.498C202.82 137.498 205.441 135.637 205.525 134.622C205.61 133.607 208.731 132.362 208.731 132.362L206.964 117.277L207.895 92.2322C207.895 92.2322 210.856 71.248 217.117 72.4339C223.378 73.6198 228.017 101.115 228.017 101.115Z" fill="#E8F5FF"/>
<path opacity="0.1" d="M217.01 126.415C217.01 126.415 225.724 124.119 228.009 126.925C230.294 129.73 217.01 126.415 217.01 126.415Z" fill="black"/>
<path opacity="0.1" d="M214.98 130.263C217.941 132.337 227.078 132.421 227.078 132.421L214.98 130.263Z" fill="black"/>
<path opacity="0.1" d="M219.463 140.628C219.718 140.712 225.745 147.144 228.275 145.198C230.805 143.252 219.463 140.628 219.463 140.628Z" fill="black"/>
<path opacity="0.1" d="M138.301 86.647C138.301 86.647 140.071 98.8325 139.198 103.796C138.326 108.759 141.509 114.907 141.509 114.907L138.301 86.647Z" fill="black"/>
<path d="M99.1171 91.6023C97.0768 93.2014 95.5875 96.9861 94.5087 101.146C92.6265 108.401 92.0119 116.815 92.0119 116.815C92.0119 116.815 75.7661 113.092 76.9495 111.401C77.6942 110.337 76.6944 102.324 75.8605 96.5143C75.3632 93.0815 74.9194 90.4164 74.9194 90.4164C74.9194 90.4164 104.702 87.2004 99.1171 91.6023Z" fill="#FFCCD0"/>
<path opacity="0.1" d="M99.1171 91.2631C97.0768 92.8647 95.5875 96.6469 94.5087 100.807C91.2719 101.789 87.8295 101.878 84.5464 101.063C81.2633 100.248 78.2619 98.56 75.8605 96.1776C75.3632 92.7423 74.9194 90.0772 74.9194 90.0772C74.9194 90.0772 104.702 86.8637 99.1171 91.2631Z" fill="black"/>
<path d="M107.85 82.1482C107.851 86.584 106.284 90.8775 103.424 94.2687C100.565 97.6598 96.5975 99.9301 92.225 100.678C87.8526 101.425 83.3567 100.602 79.533 98.353C75.7093 96.1043 72.8044 92.5755 71.3324 88.391C69.8604 84.2065 69.9161 79.6361 71.4899 75.4888C73.0636 71.3415 76.0538 67.8846 79.9312 65.7299C83.8086 63.5753 88.3233 62.8618 92.6762 63.7158C97.0291 64.5698 100.94 66.9362 103.715 70.3961C106.39 73.729 107.849 77.8746 107.85 82.1482Z" fill="#FFCCD0"/>
<path opacity="0.1" d="M122.662 199.607H117.306L116.855 190.148L116.383 180.357C116.383 180.357 117.6 180.176 119.538 179.906L120.321 179.801H120.385C120.808 181.788 121.226 183.828 121.629 185.866C122.3 189.483 122.649 193.153 122.672 196.832C122.672 197.087 122.672 197.342 122.672 197.582C122.687 198.263 122.672 198.944 122.662 199.607Z" fill="black"/>
<path d="M121.634 199.607H54.4682C54.7589 198.947 54.9527 198.546 54.9527 198.546C54.9527 198.546 60.3263 175.037 63.0577 165.091C63.0586 165.082 63.0586 165.074 63.0577 165.065C63.399 163.714 63.811 162.382 64.2921 161.074C64.3232 160.985 64.3634 160.9 64.412 160.819C65.7637 158.62 67.4571 156.251 65.0878 152.867C62.7185 149.483 63.5576 134.591 63.5576 134.591C63.5576 134.591 66.4344 121.898 69.4795 115.129C69.9417 114.081 70.5975 113.129 71.4127 112.324C71.6777 112.065 71.9606 111.824 72.2594 111.605C72.4865 111.434 72.7232 111.276 72.9684 111.133L73.0169 111.102C74.2961 110.377 75.7166 109.936 77.1816 109.809C78.2223 109.7 79.2727 109.73 80.3058 109.896C85.2432 110.62 89.1963 111.832 92.3383 113.211C100.854 116.953 103.432 121.967 103.483 122.071L103.504 122.115C103.846 122.913 108.844 134.583 110.645 140.028C111.111 141.446 111.366 142.444 111.264 142.716C110.754 144.068 115.156 160.99 115.156 160.99C115.156 160.99 117.197 169.151 119.237 178.717C119.326 179.115 119.41 179.513 119.492 179.916C119.857 181.653 120.219 183.423 120.568 185.19C121.245 188.832 121.594 192.528 121.611 196.233C121.649 197.387 121.656 198.512 121.634 199.607Z" fill="#FF748E"/>
<path opacity="0.1" d="M76.7812 103.989C76.7812 103.989 72.1472 102.204 72.2033 104.913C72.2594 107.621 73.3331 108.917 72.9939 109.312C72.6547 109.707 73.1622 112.077 73.1622 112.077C73.1622 112.077 79.4233 112.077 82.3001 113.372C85.1769 114.668 95.7813 117.264 97.1355 118.055C98.4898 118.845 103.511 122.39 103.511 122.39L103.963 115.678C103.963 115.678 98.7728 111.39 90.2572 109.192C81.7416 106.994 76.7812 103.989 76.7812 103.989Z" fill="black"/>
<path d="M76.7812 103.65C76.7812 103.65 72.1472 101.865 72.2033 104.573C72.2594 107.282 73.3331 108.577 72.9939 108.973C72.6547 109.368 73.1622 111.737 73.1622 111.737C73.1622 111.737 79.4233 111.737 82.3001 113.035C85.1769 114.334 95.7813 116.927 97.1355 117.715C98.4898 118.503 103.511 122.051 103.511 122.051L103.968 115.359C103.968 115.359 98.7779 111.072 90.2623 108.873C81.7467 106.675 76.7812 103.65 76.7812 103.65Z" fill="#FF748E"/>
<path opacity="0.1" d="M90.7698 119.804C90.7698 119.804 99.6247 129.391 99.1732 132.046C98.7218 134.701 90.7698 119.804 90.7698 119.804Z" fill="black"/>
<path opacity="0.1" d="M76.3859 154.435C76.3859 154.435 69.8952 160.416 67.9825 160.755C66.0697 161.094 69.4489 162.222 71.6473 161.321C73.8457 160.421 78.5333 158.052 78.5333 158.052L76.3859 154.435Z" fill="black"/>
<path d="M124.271 199.607H109.135C107.018 197.771 105.016 196.07 103.741 195.047C101.701 193.41 100.229 191 99.2906 189.061C99.0789 188.62 98.8953 188.207 98.7397 187.832C98.4611 187.186 98.216 186.527 98.0052 185.856L109.214 179.199C109.833 179.726 110.415 180.295 110.956 180.903L111.091 181.058C111.713 181.793 112.262 182.627 112.31 183.31C112.366 184.106 114.58 187.184 116.842 190.14C119.137 193.147 121.489 196.021 121.644 196.215C121.644 196.215 122.032 196.743 122.665 197.554C123.111 198.141 123.662 198.845 124.271 199.607Z" fill="#FFCCD0"/>
<path opacity="0.1" d="M103.715 70.3961C103.177 71.6101 102.695 72.87 102.624 74.2217C102.422 78.1237 102.749 86.8484 98.4286 88.8071C96.2888 89.7712 93.9986 87.6544 91.6523 87.6034C89.9639 87.5676 88.4159 88.6388 87.3855 89.9777C86.3552 91.3167 85.7151 92.9055 84.9678 94.4204C84.2876 95.7955 83.5041 97.1169 82.624 98.3735C82.361 98.758 82.0712 99.1236 81.7569 99.4676C79.1226 98.356 76.7767 96.6577 74.8981 94.5022C73.0195 92.3466 71.6577 89.7907 70.9165 87.0292C70.1754 84.2676 70.0743 81.3733 70.6212 78.5668C71.168 75.7603 72.3482 73.1157 74.0719 70.8344C75.7957 68.5531 78.0174 66.6954 80.5678 65.4028C83.1183 64.1102 85.9301 63.4169 88.7891 63.3756C91.6481 63.3343 94.4787 63.9462 97.0654 65.1646C99.6521 66.383 101.927 68.1758 103.715 70.4063V70.3961Z" fill="black"/>
<path d="M102.285 73.5331C102.081 77.4351 102.41 86.1599 98.0868 88.116C95.947 89.08 93.6568 86.9658 91.3105 86.9148C89.6222 86.8765 88.0766 87.9502 87.0438 89.2866C86.0109 90.623 85.3758 92.2144 84.626 93.7318C83.9456 95.1068 83.1621 96.4282 82.2823 97.6849C81.7569 98.4296 81.1754 99.1768 80.3669 99.5951C78.9591 100.33 77.253 99.9165 75.7432 99.4446C73.7845 98.8274 71.8547 98.1321 69.9539 97.3584C69.9975 97.0715 70.0196 96.7816 70.0202 96.4913C69.9641 96.5984 69.9028 96.6979 69.8416 96.805L69.7218 97.0142C69.505 97.3967 69.2933 97.7793 69.0995 98.172C69.0255 98.3225 68.9541 98.4781 68.8904 98.6336C68.6339 99.2126 68.4728 99.8292 68.4134 100.46C68.2834 102.161 69.1224 103.775 69.8671 105.305C72.7312 111.225 74.5011 118.146 72.3461 124.356C71.4127 127.057 69.7957 129.457 68.6149 132.066C66.5508 136.687 65.9432 141.827 66.873 146.802C67.4622 149.893 68.643 152.954 68.3522 156.088C67.8422 161.482 63.1903 165.496 58.5308 168.256C56.0136 169.74 52.9328 171.061 50.26 169.888C51.9637 167.899 52.4023 165.147 52.7696 162.551C53.7744 155.469 54.7818 148.384 55.7918 141.296C56.1947 138.475 56.5968 135.655 56.9981 132.834C57.7479 127.534 58.5079 122.176 58.0386 116.843C57.6969 112.913 56.7328 108.741 58.4365 105.183C59.3367 103.298 60.9409 101.737 61.4408 99.7073C61.8514 98.0572 61.4688 96.3026 61.7392 94.6219C61.8871 93.8573 62.1376 93.1161 62.4839 92.4184C62.9248 91.4717 63.5003 90.5938 64.1926 89.812C63.5091 89.613 62.8715 89.3401 62.4839 88.7689C63.5805 88.0548 63.7463 86.4455 63.249 85.2366C62.7517 84.0278 61.757 83.1071 60.8618 82.1532C59.9667 81.1994 59.1047 80.0875 58.9924 78.7868C58.7757 76.3104 61.2495 74.3925 61.6856 71.9493C62.1268 69.4627 60.3824 67.045 60.5227 64.5278C60.6859 61.4852 63.4811 59.274 66.2405 57.9912C70.4047 56.0635 75.0047 55.2716 79.5738 55.6959C83.2922 56.0479 86.8907 57.1981 90.5989 57.6444C92.8356 57.8994 95.1029 57.9249 97.3242 58.3177C99.5456 58.7104 101.772 59.5393 103.335 61.169C107.457 65.4663 102.519 69.0036 102.285 73.5331Z" fill="#FFE0D0"/>
<path opacity="0.1" d="M98.8366 189.064C97.5359 188.5 95.1692 188.837 91.1065 187.6C87.0438 186.363 86.2608 180.773 86.2608 180.773V180.755C86.2124 180.627 85.8349 179.796 83.2795 176.883C80.4562 173.667 74.3532 157.424 74.3532 157.424C74.3532 157.424 68.9414 151.612 69.1123 149.47C69.2831 147.327 68.1508 141.627 68.263 135.252C68.3752 128.876 80.446 124.647 80.446 124.647C103.687 120.528 98.2143 147.322 97.5946 149.352C96.9748 151.383 100.191 156.866 100.191 156.866C99.7369 159.253 102.053 162.948 102.053 162.948C102.053 162.948 102.614 166.218 102.728 167.46C102.735 167.517 102.748 167.574 102.767 167.628C103.139 168.799 106.174 169.86 107.408 170.505C108.706 171.183 112.881 177.105 112.881 177.105C113.782 181.454 100.132 189.635 98.8366 189.064Z" fill="black"/>
<path d="M99.5124 188.044C98.2143 187.478 95.845 187.817 91.7849 186.577C87.7247 185.338 86.9392 179.753 86.9392 179.753V179.735C86.8933 179.605 86.5133 178.776 83.9578 175.863C81.1346 172.647 75.0316 156.402 75.0316 156.402C75.0316 156.402 69.6197 150.592 69.7881 148.45C69.9564 146.307 68.8291 140.607 68.9414 134.237C69.0536 127.866 81.1167 123.64 81.1167 123.64C104.358 119.521 98.885 146.315 98.2653 148.345C97.6456 150.375 100.862 155.858 100.862 155.858C100.408 158.246 102.723 161.941 102.723 161.941C102.723 161.941 103.284 165.211 103.402 166.453C103.406 166.51 103.418 166.567 103.437 166.621C103.81 167.791 106.845 168.852 108.082 169.498C109.377 170.174 113.555 176.098 113.555 176.098C114.46 180.439 100.811 188.62 99.5124 188.044Z" fill="#FF748E"/>
<path opacity="0.1" d="M81.5758 137.628C81.5758 137.628 91.7288 148.34 94.3786 148.34C97.0284 148.34 81.5758 137.628 81.5758 137.628Z" fill="black"/>
<path d="M99.5124 188.044C98.2143 187.478 95.845 187.817 91.7849 186.577C87.7247 185.338 86.9392 179.753 86.9392 179.753V179.735C89.6298 177.95 96.4444 172.907 99.1299 171.064C101.02 169.771 102.563 167.871 103.465 166.611C103.838 167.781 106.873 168.842 108.11 169.487C109.405 170.163 113.583 176.088 113.583 176.088C114.46 180.439 100.811 188.62 99.5124 188.044Z" fill="#FF748E"/>
<g opacity="0.1">
<path opacity="0.1" d="M62.4992 88.7969C62.5119 88.8173 62.5298 88.8352 62.5451 88.8556C62.6216 88.7586 62.7007 88.6617 62.7823 88.5699C62.6954 88.6544 62.6006 88.7304 62.4992 88.7969Z" fill="black"/>
<path opacity="0.1" d="M68.416 100.488C68.5231 99.0723 69.2806 97.8251 69.9896 96.5806C69.5254 96.402 69.0612 96.221 68.6022 96.0322C68.6459 95.7461 68.6681 95.4571 68.6685 95.1677C67.9518 96.4428 67.1714 97.6976 67.0618 99.1335C66.9317 100.837 67.7708 102.449 68.5155 103.979C71.3821 109.896 73.1495 116.818 70.9944 123.03C70.0584 125.729 68.4441 128.131 67.2632 130.74C65.1998 135.36 64.5931 140.5 65.5239 145.473C66.1079 148.567 67.2913 151.625 67.0006 154.759C66.4905 160.153 61.8412 164.167 57.1792 166.924C55.2741 168.052 53.0476 169.085 50.918 169.011C50.7209 169.328 50.501 169.63 50.2601 169.916C52.9354 171.097 56.0136 169.768 58.5308 168.279C63.1954 165.524 67.8549 161.52 68.365 156.116C68.6557 152.982 67.4724 149.924 66.8858 146.83C65.9547 141.857 66.5596 136.718 68.62 132.097C69.7932 129.49 71.4254 127.085 72.3512 124.387C74.5062 118.174 72.7363 111.253 69.8723 105.336C69.1301 103.796 68.2859 102.191 68.416 100.488Z" fill="black"/>
<path opacity="0.1" d="M103.33 61.1995C103.079 60.9422 102.81 60.7035 102.524 60.4854C105.615 64.4946 101.152 67.9019 100.93 72.2171C100.732 76.1191 101.058 84.8464 96.7351 86.8C94.5979 87.7666 92.3051 85.6498 89.9614 85.5988C88.2705 85.5631 86.725 86.6367 85.6921 87.9731C84.6592 89.3095 84.0242 90.9009 83.2769 92.4158C82.5952 93.7906 81.8109 95.112 80.9306 96.3689C80.4205 97.1161 79.8237 97.8608 79.0127 98.2817C77.61 99.0136 75.9038 98.603 74.3915 98.1286C72.9208 97.6662 71.4637 97.1561 70.0202 96.5984C70.0172 96.8641 69.995 97.1291 69.9539 97.3916C71.8564 98.1669 73.787 98.8623 75.7457 99.4778C77.2555 99.9521 78.9617 100.363 80.367 99.6308C81.1754 99.21 81.762 98.4627 82.2848 97.7155C83.1657 96.4604 83.9493 95.1397 84.6286 93.765C85.3784 92.2501 86.0109 90.6561 87.0463 89.3197C88.0818 87.9833 89.6247 86.9122 91.3131 86.9479C93.6594 86.9989 95.9521 89.1157 98.0893 88.1491C102.412 86.1955 102.083 77.4682 102.285 73.5662C102.519 69.0291 107.457 65.4943 103.33 61.1995Z" fill="black"/>
</g>
<path opacity="0.1" d="M69.7243 97.0167C69.5076 97.3992 69.2959 97.7818 69.1021 98.1746C69.0281 98.325 68.9567 98.4806 68.8929 98.6362C67.5565 97.2896 64.3023 94.0889 62.4865 93.0968C62.928 92.1505 63.5034 91.2726 64.1952 90.4903C64.1952 90.4903 68.5231 92.778 69.7243 97.0167Z" fill="black"/>
<path d="M69.8442 96.8076C68.8419 92.2705 64.1952 89.8145 64.1952 89.8145C63.5029 90.5964 62.9273 91.4743 62.4865 92.421C64.4018 93.4692 67.9315 96.9835 69.1021 98.1746L69.8442 96.8076Z" fill="#FF748E"/>
<defs>
<linearGradient id="paint0_linear" x1="186.184" y1="24.3291" x2="186.184" y2="19.6416" gradientUnits="userSpaceOnUse">
<stop stop-color="#808080" stop-opacity="0.25"/>
<stop offset="0.54" stop-color="#808080" stop-opacity="0.12"/>
<stop offset="1" stop-color="#808080" stop-opacity="0.1"/>
</linearGradient>
<linearGradient id="paint1_linear" x1="117003" y1="167942" x2="117003" y2="11709.3" gradientUnits="userSpaceOnUse">
<stop stop-color="#808080" stop-opacity="0.25"/>
<stop offset="0.54" stop-color="#808080" stop-opacity="0.12"/>
<stop offset="1" stop-color="#808080" stop-opacity="0.1"/>
</linearGradient>
</defs>
</svg>
