<svg width="194" height="153" viewBox="0 0 194 153" fill="none" xmlns="http://www.w3.org/2000/svg">
<path d="M114.834 89.438C108.181 75.924 113.503 64.1824 122.818 55.9854C135.682 50.0038 148.323 52.6623 157.638 64.6255C163.716 61.0772 171.455 60.3089 177.82 61.7455C182.731 43.2679 178.132 21.1144 161.74 9.17144C140.417 -6.36361 110.524 -1.69034 94.972 19.6094C73.649 4.07438 43.7561 8.74765 28.2042 30.0474C12.6523 51.3471 17.3306 81.2077 38.6535 96.7427L115.871 153L136.347 124.663L114.834 89.438Z" fill="url(#paint0_linear)"/>
<path d="M157.931 66.4744C156.349 63.7683 154.249 61.4 151.75 59.5049C149.252 57.6097 146.404 56.2248 143.37 55.4292C140.336 54.6336 137.174 54.4429 134.066 54.8681C130.958 55.2932 127.964 56.3258 125.256 57.9069C122.548 59.488 120.177 61.5867 118.281 64.083C116.385 66.5793 114.999 69.4243 114.204 72.4555C113.409 75.4868 113.219 78.6449 113.645 81.7494C114.072 84.8539 115.107 87.8441 116.691 90.549L140.792 131.744L182.031 107.669C184.739 106.089 187.109 103.991 189.005 101.495C190.901 98.9995 192.287 96.1553 193.082 93.1248C193.878 90.0944 194.068 86.9371 193.643 83.8332C193.217 80.7292 192.183 77.7395 190.601 75.0345C189.018 72.3296 186.918 69.9626 184.42 68.0685C181.921 66.1744 179.074 64.7904 176.04 63.9956C173.007 63.2007 169.846 63.0105 166.739 63.4358C163.631 63.8611 160.638 64.8936 157.931 66.4744Z" fill="url(#paint1_linear)"/>
<path d="M157.731 67.2323C154.684 62.0233 149.69 58.2369 143.847 56.7061C138.005 55.1754 131.793 56.0256 126.579 59.0698C121.364 62.114 117.574 67.1028 116.041 72.9387C114.509 78.7746 115.36 84.9796 118.407 90.1887L141.389 129.47L180.713 106.514C183.295 105.006 185.554 103.006 187.362 100.626C189.17 98.2466 190.492 95.5345 191.25 92.6449C192.009 89.7552 192.191 86.7445 191.785 83.7848C191.379 80.825 190.393 77.9741 188.884 75.3949C187.375 72.8156 185.372 70.5585 182.99 68.7524C180.608 66.9463 177.893 65.6266 175 64.8687C172.107 64.1107 169.093 63.9293 166.13 64.3349C163.168 64.7405 160.314 65.725 157.731 67.2323Z" fill="#E53935"/>
<path opacity="0.2" d="M180.297 106.721C185.504 103.682 189.291 98.7043 190.828 92.8797C192.365 87.0551 191.527 80.8593 188.497 75.6512C185.467 70.4432 180.493 66.6481 174.666 65.0984C168.839 63.5487 162.634 64.371 157.413 67.3848L180.055 106.863L180.297 106.721Z" fill="black"/>
<path d="M176.278 60.726C169.973 59.2948 163.359 60.316 157.781 63.5819C154.366 57.7456 148.769 53.5037 142.222 51.7889C135.676 50.0742 128.715 51.0272 122.872 54.4383C117.029 57.8494 112.781 63.4392 111.063 69.9783C109.345 76.5175 110.298 83.4705 113.712 89.3081L133.96 123.92L115.183 149.64L76.6253 121.547L79.8729 119.652C86.2373 115.937 90.9472 109.941 93.0458 102.882C95.1443 95.8228 94.4741 88.2306 91.1712 81.6474C87.8684 75.0643 82.1807 69.9839 75.2635 67.4384C68.3464 64.8929 60.7185 65.0732 53.9296 67.9426C52.7844 68.4285 51.6712 68.9865 50.5969 69.6134C47.7994 64.8295 43.6878 60.9469 38.7491 58.4256C33.8105 55.9043 28.2518 54.8501 22.7317 55.3877C22.9116 53.086 23.2658 50.8012 23.7914 48.553C23.8495 48.3039 23.9119 48.0528 23.9742 47.8017C24.2235 46.8158 24.5061 45.8354 24.8219 44.8606C24.8469 44.7859 24.8697 44.7091 24.8967 44.6344C25.0401 44.2027 25.1918 43.771 25.3476 43.3413C25.5263 42.8515 25.7154 42.3617 25.9128 41.876C26.0104 41.6332 26.1102 41.3903 26.2141 41.1496C26.3138 40.915 26.4156 40.6805 26.5195 40.446C26.5225 40.4389 26.526 40.4319 26.5299 40.4252C26.6358 40.1845 26.746 39.9458 26.8582 39.7071C26.8706 39.678 26.8831 39.649 26.8976 39.622C26.9974 39.4103 27.0971 39.2007 27.201 38.991C27.3174 38.7523 27.4358 38.5157 27.5563 38.2791C27.8119 37.7748 28.0799 37.2766 28.3583 36.7785C28.4581 36.5959 28.562 36.4153 28.6679 36.2347C28.7926 36.0168 28.9193 35.7989 29.0502 35.583C29.1105 35.4834 29.1707 35.3817 29.2331 35.2821C29.5718 34.7237 29.925 34.1709 30.2928 33.6237C30.3779 33.495 30.4652 33.3663 30.5545 33.2377C30.6751 33.0612 30.7977 32.8848 30.9202 32.7105C31.0678 32.5029 31.2153 32.2954 31.367 32.0878C46.2356 11.7248 74.8155 7.25616 95.2007 22.1087C110.069 1.74563 138.649 -2.72299 159.036 12.1295C166.478 17.5512 172.105 25.0922 175.182 33.7639C178.258 42.4356 178.64 51.8336 176.278 60.726Z" fill="#0C96C5"/>
<path d="M47.9308 73.7249C44.4865 67.844 38.8452 63.5701 32.2471 61.843C25.6491 60.1158 18.6345 61.0768 12.7456 64.5146C6.85667 67.9524 2.57552 73.5856 0.843401 80.1756C-0.888716 86.7657 0.0699981 93.7731 3.50876 99.6573L29.4693 144.031L73.8913 118.099C79.7789 114.658 84.0578 109.023 85.787 102.432C87.5162 95.8411 86.5543 88.8338 83.1126 82.9511C79.671 77.0684 74.0315 72.7918 67.434 71.0617C60.8366 69.3316 53.8213 70.2895 47.9308 73.7249Z" fill="#E53935"/>
<path opacity="0.2" d="M95.2775 22.1211L53.9296 67.9426C52.7844 68.4284 51.6712 68.9865 50.5969 69.6134C47.7994 64.8295 43.6878 60.9469 38.7491 58.4256C33.8105 55.9043 28.2518 54.85 22.7317 55.3877C22.9116 53.086 23.2658 50.8012 23.7914 48.553C23.8495 48.3039 23.9119 48.0528 23.9742 47.8016C24.2215 46.8158 24.504 45.8354 24.8219 44.8606C24.8469 44.7859 24.8697 44.7091 24.8967 44.6344C25.0401 44.2027 25.1904 43.7716 25.3476 43.3413C25.5263 42.8515 25.7133 42.3617 25.9128 41.876C26.0104 41.6331 26.1102 41.3903 26.2141 41.1495C26.3138 40.915 26.4156 40.6805 26.5195 40.4459C26.5225 40.4388 26.526 40.4319 26.5299 40.4252C26.6358 40.1844 26.746 39.9457 26.8582 39.7071C26.8706 39.678 26.8831 39.6489 26.8976 39.622C26.9974 39.4103 27.0971 39.2006 27.201 38.991C27.3174 38.7523 27.4358 38.5157 27.5563 38.2791C27.8119 37.7747 28.0799 37.2766 28.3583 36.7785C28.4581 36.5958 28.562 36.4153 28.6679 36.2347C28.7926 36.0168 28.9193 35.7988 29.0502 35.583C29.1105 35.4834 29.1707 35.3817 29.2331 35.282C29.5718 34.7237 29.925 34.1709 30.2927 33.6237C30.3779 33.495 30.4652 33.3663 30.5545 33.2376C30.6751 33.0612 30.7977 32.8848 30.9202 32.7104C31.0678 32.5029 31.2153 32.2953 31.367 32.0878C46.2356 11.7248 74.8155 7.25614 95.2007 22.1086C95.2215 22.0837 95.2402 22.0567 95.2609 22.0318L95.2775 22.1211Z" fill="black"/>
<defs>
<linearGradient id="paint0_linear" x1="99.3537" y1="153" x2="99.3537" y2="0" gradientUnits="userSpaceOnUse">
<stop stop-color="#808080" stop-opacity="0.25"/>
<stop offset="0.53514" stop-color="#808080" stop-opacity="0.12"/>
<stop offset="1" stop-color="#808080" stop-opacity="0.1"/>
</linearGradient>
<linearGradient id="paint1_linear" x1="70335.3" y1="55268.8" x2="70335.3" y2="26632.1" gradientUnits="userSpaceOnUse">
<stop stop-color="#808080" stop-opacity="0.25"/>
<stop offset="0.53514" stop-color="#808080" stop-opacity="0.12"/>
<stop offset="1" stop-color="#808080" stop-opacity="0.1"/>
</linearGradient>
</defs>
</svg>
