<svg width="298" height="163" viewBox="0 0 298 163" fill="none" xmlns="http://www.w3.org/2000/svg">
<path d="M297.463 151.899C297.463 143.055 292.967 135.885 287.422 135.885C283.936 135.885 280.866 138.719 279.066 143.019C278.457 142.767 277.806 142.636 277.147 142.634C275.468 142.634 273.916 143.493 272.651 144.946C271.028 139.584 267.586 135.885 263.603 135.885C259.879 135.885 256.63 139.121 254.897 143.924C253.934 143.113 252.72 142.657 251.46 142.634C247.204 142.634 243.754 148.136 243.754 154.924C243.736 157.186 244.148 159.431 244.968 161.541H295.438C296.708 158.859 297.463 155.519 297.463 151.899Z" fill="#38D39F"/>
<path d="M261.464 59.4285C253.556 42.3527 238.081 27.7856 219.386 25.4114C214.443 24.7837 209.283 25.0355 204.697 26.9801C198.676 29.5328 194.24 34.6853 189.756 39.4384C180.261 49.4992 169.637 58.4339 158.092 66.0656C152.395 69.8311 146.283 73.3445 139.518 74.3079C125.955 76.2397 112.538 67.0066 106.353 54.8032C102.489 47.1801 100.703 38.23 97.5793 30.3009C93.9818 30.294 89.6958 30.2953 85.0846 30.3165C72.3386 30.3752 61.964 30.5632 61.964 30.5632C61.964 30.5632 74.2959 14.2573 85.0383 20.2985C88.4713 22.2291 92.0669 23.9519 95.3714 25.4032C93.4941 21.7985 91.1262 18.5552 87.8686 15.9475C81.4453 10.8056 72.7456 9.3633 64.5209 9.74622C55.8843 10.1483 47.1684 12.4565 40.1505 17.4974C27.6487 26.4775 22.4859 42.284 18.0673 57.0125L28.7477 62.3573C33.329 58.4036 40.0281 54.4927 46.2029 57.9652C56.9453 64.0064 69.2856 68.0175 69.2856 68.0175C69.2856 68.0175 58.9951 67.9246 46.2491 67.9832C44.1084 67.9931 42.0372 68.0067 40.0682 68.0223L158.647 127.362C197.758 127.912 227.247 125.801 264.411 127.362C266.35 127.443 270.709 117.301 270.724 114.632C270.826 95.8207 269.372 76.5043 261.464 59.4285ZM223.487 64.5465C210.741 64.6051 200.367 64.7931 200.367 64.7931C200.367 64.7931 212.699 48.4872 223.441 54.5284C234.184 60.5696 246.524 64.5807 246.524 64.5807C246.524 64.5807 236.233 64.4879 223.487 64.5465L223.487 64.5465Z" fill="#F2F2F2"/>
<path opacity="0.3" d="M256.699 120.351C256.699 113.921 252.711 108.708 247.791 108.708C244.699 108.708 241.975 110.768 240.378 113.895C239.829 113.71 239.254 113.615 238.675 113.615C237.178 113.64 235.749 114.243 234.687 115.296C233.247 111.397 230.194 108.708 226.66 108.708C223.355 108.708 220.474 111.061 218.936 114.553C218.034 113.949 216.973 113.622 215.887 113.615C212.111 113.615 209.05 117.616 209.05 122.551C209.039 124.215 209.407 125.861 210.127 127.362H254.903C256.103 125.221 256.723 122.804 256.699 120.351Z" fill="#38D39F"/>
<path d="M297.463 162.004H22.5851V161.455H297.187L297.463 162.004Z" fill="#2F2E41"/>
<path d="M274.878 127.912H0V127.362H274.602L274.878 127.912Z" fill="#2F2E41"/>
<path d="M116.68 77.2956C116.68 77.2956 118.411 64.6227 121.296 68.0789C124.182 71.5352 121.296 76.7195 121.296 76.7195L118.988 79.5997L116.68 77.8716V77.2956Z" fill="#FFB8B8"/>
<path d="M109.755 81.3279C109.755 81.3279 115.526 74.9914 116.68 76.1435C117.834 77.2956 121.296 77.8716 120.719 80.1758C120.142 82.4799 108.024 89.9685 108.024 89.9685L109.755 81.3279Z" fill="#38D39F"/>
<path opacity="0.1" d="M109.755 81.3279C109.755 81.3279 115.526 74.9914 116.68 76.1435C117.834 77.2956 121.296 77.8716 120.719 80.1758C120.142 82.4799 108.024 89.9685 108.024 89.9685L109.755 81.3279Z" fill="black"/>
<path d="M76.8621 80.7518V85.3601C76.8621 85.3601 76.285 95.7289 79.7474 95.1529C83.2098 94.5768 81.4786 85.9362 81.4786 85.9362L80.9015 80.7518H76.8621Z" fill="#FFB8B8"/>
<path d="M78.5933 114.162C78.5933 114.162 73.3997 122.227 71.6685 122.803C69.9373 123.379 60.7042 128.563 59.5501 133.748L51.4711 144.116L55.5106 149.301C55.5106 149.301 73.9767 129.715 79.1703 127.987C84.3639 126.259 89.5575 117.618 89.5575 117.618L78.5933 114.162Z" fill="#FFB8B8"/>
<path d="M119.565 100.913C119.565 100.913 130.529 102.641 128.798 109.554C127.067 116.466 110.332 130.867 110.332 130.867L109.755 134.324L103.407 135.476L100.522 132.596L101.099 130.867C101.099 130.867 108.024 124.531 108.601 122.227C109.178 119.923 115.526 110.706 118.411 110.13L114.371 107.826L119.565 100.913Z" fill="#FFB8B8"/>
<path d="M53.2023 144.116C53.2023 144.116 55.5106 140.66 52.0482 141.236C48.5858 141.812 46.2775 142.388 46.2775 144.692C46.2775 146.997 49.1629 163.126 52.6253 161.974C56.0877 160.822 53.2023 155.637 53.2023 155.637C53.2023 155.637 54.9335 151.029 56.0877 150.453C57.2418 149.877 57.2418 146.997 56.0877 146.997C54.9335 146.997 52.6253 145.269 53.2023 144.116Z" fill="#2F2E41"/>
<path d="M102.253 131.443C102.253 131.443 102.253 128.563 99.9447 131.443C97.6365 134.324 96.4823 136.628 98.7906 138.356C101.099 140.084 109.178 144.116 109.178 144.116C109.178 144.116 117.834 145.845 116.68 141.812C116.68 141.812 110.909 138.932 110.909 136.628C110.909 134.324 110.909 130.291 109.178 131.443C107.447 132.596 102.253 133.172 102.253 131.443Z" fill="#2F2E41"/>
<path d="M91.2887 88.2404C91.2887 88.2404 83.2098 89.3924 83.7868 100.913C83.7868 100.913 73.3997 111.282 76.285 114.738C79.1703 118.195 85.518 124.531 87.8263 122.803C90.1346 121.075 97.0594 107.826 97.0594 107.826C97.0594 107.826 113.217 113.586 116.103 110.706C118.988 107.826 121.873 100.913 121.873 100.913L107.447 93.4247L91.2887 88.2404Z" fill="#2F2E41"/>
<path d="M113.794 55.406C117.619 55.406 120.719 52.3112 120.719 48.4935C120.719 44.6758 117.619 41.581 113.794 41.581C109.97 41.581 106.87 44.6758 106.87 48.4935C106.87 52.3112 109.97 55.406 113.794 55.406Z" fill="#FFB8B8"/>
<path d="M108.601 49.0695C108.601 49.0695 104.561 55.406 103.407 55.982C102.253 56.558 111.486 62.3185 111.486 62.3185C111.486 62.3185 111.486 54.8299 114.371 53.1018L108.601 49.0695Z" fill="#FFB8B8"/>
<path d="M108.024 55.406C108.024 55.406 98.7906 52.5258 97.0594 57.1341C95.3282 61.7424 91.2887 70.3831 91.8658 76.1435C92.4429 81.9039 93.597 80.7518 91.8658 82.4799C90.1346 84.2081 88.9805 83.056 89.5575 85.3602C90.1346 87.6643 90.7117 87.6643 90.1346 88.8164C89.5575 89.9685 97.0594 94.0008 103.407 94.5768L109.755 95.1529C109.755 95.1529 109.755 84.7841 110.909 82.48C112.063 80.1758 114.371 75.5675 114.371 73.8393V69.2668C114.371 66.2235 113.576 63.2328 112.063 60.5904C112.063 60.5904 108.601 55.406 108.024 55.406Z" fill="#38D39F"/>
<path d="M101.099 57.7101C101.099 57.7101 79.7474 59.4383 77.4391 65.1987C75.1309 70.9591 73.9767 82.4799 76.285 82.4799C78.5933 82.4799 81.4786 83.632 82.0557 82.4799C82.6327 81.3278 84.941 69.807 85.5181 69.807C86.0951 69.807 103.407 68.0789 103.407 68.0789C103.407 68.0789 110.909 58.8622 101.099 57.7101Z" fill="#38D39F"/>
<path d="M114.073 46.7798C114.073 46.7798 115.91 43.592 118.207 46.3609C120.504 49.1298 124.241 44.0414 123.667 42.9557C123.094 41.8699 121.068 43.0045 117.596 41.8716C114.125 40.7388 107.437 38.4309 106.317 45.9592C105.197 53.4875 107.865 52.6983 107.865 52.6983C107.865 52.6983 109.087 46.0274 110.192 47.9436L111.297 49.8598L112.256 50.0953L114.073 46.7798Z" fill="#2F2E41"/>
<path d="M179.389 29.1403C184.055 29.1403 187.838 25.3644 187.838 20.7067C187.838 16.0489 184.055 12.2731 179.389 12.2731C174.723 12.2731 170.94 16.0489 170.94 20.7067C170.94 25.3644 174.723 29.1403 179.389 29.1403Z" fill="#2F2E41"/>
<path d="M176.688 26.949C176.688 26.949 177.126 34.8046 176.251 34.8046C175.377 34.8046 181.716 38.5142 181.716 38.5142L185.651 36.3321V33.7136C185.651 33.7136 180.404 33.059 182.59 27.3855C184.776 21.712 176.688 26.949 176.688 26.949Z" fill="#9F616A"/>
<path d="M158.326 113.142L157.67 119.689L159.856 120.343L161.605 118.598L162.261 113.142H158.326Z" fill="#9F616A"/>
<path d="M189.804 116.852L190.897 120.998L193.957 122.962L197.237 121.216L193.52 115.106L189.804 116.852Z" fill="#9F616A"/>
<path d="M178.765 30.3313C182.266 30.3313 185.104 27.4981 185.104 24.0032C185.104 20.5083 182.266 17.6751 178.765 17.6751C175.264 17.6751 172.426 20.5083 172.426 24.0032C172.426 27.4981 175.264 30.3313 178.765 30.3313Z" fill="#9F616A"/>
<path d="M174.94 47.6791L173.409 47.0245C173.409 47.0245 170.786 45.497 170.568 42.442C170.349 39.3871 172.754 35.4593 172.754 35.4593L176.251 34.3682L180.361 37.7069L180.405 43.0967L174.94 47.6791Z" fill="#9F616A"/>
<path d="M173.409 35.8957L172.535 35.4593C172.535 35.4593 168.163 35.2411 167.726 40.4781C167.289 45.7152 165.758 54.4436 165.758 54.4436C165.758 54.4436 162.261 60.5535 162.479 67.0999L160.731 72.7733C160.731 72.7733 158.326 81.0653 161.168 81.0653C164.01 81.0653 163.791 72.1187 163.791 72.1187C163.791 72.1187 169.037 59.4625 169.475 57.2804C169.912 55.0982 173.628 44.8423 172.535 42.0056C171.442 39.1689 173.409 35.8957 173.409 35.8957Z" fill="#9F616A"/>
<path d="M176.688 49.643V52.0433C176.688 52.0433 178.219 53.789 177.563 54.88C176.907 55.9711 176.251 58.1532 176.251 58.1532L179.312 62.9538L189.586 63.8267L191.629 50.1623L176.688 49.643Z" fill="#9F616A"/>
<path d="M186.307 34.3682L188.055 33.4954C188.055 33.4954 191.772 30.8769 194.832 30.4404L204.232 24.1123L210.353 9.49217C210.353 9.49217 210.134 1.63658 211.883 2.50943C213.632 3.38227 213.413 10.1468 213.413 10.1468C213.413 10.1468 210.134 23.6759 207.292 27.3855C204.45 31.095 194.176 37.205 194.176 37.205C194.176 37.205 191.334 40.4781 191.553 42.0056C191.772 43.5331 186.307 34.3682 186.307 34.3682Z" fill="#9F616A"/>
<path d="M178.219 58.1532C178.219 58.1532 175.814 56.6257 174.284 59.2443C172.754 61.8628 169.912 62.5174 168.163 70.373C166.414 78.2286 162.261 90.6666 161.168 91.5395C160.075 92.4123 155.484 101.577 158.107 114.452H162.479L166.196 95.9037C166.196 95.9037 178.219 81.0653 179.093 74.9554L183.028 97.8676C183.028 97.8676 183.246 106.596 186.525 110.742L190.023 119.034L194.613 116.852L189.367 95.9037C189.367 95.9037 191.99 74.7372 190.241 68.8455L189.99 61.1214C189.99 61.1214 182.809 61.4264 178.219 58.1532Z" fill="#2F2E41"/>
<path d="M159.856 118.598H157.233C156.796 118.598 153.298 121.434 154.828 122.962C156.359 124.489 158.763 127.326 158.763 127.326C158.763 127.326 167.289 128.408 167.507 126.881C167.726 125.353 163.791 122.089 163.791 122.089L162.698 118.598C162.698 118.598 160.512 116.197 159.856 118.598Z" fill="#2F2E41"/>
<path d="M194.613 120.78C194.613 120.78 190.897 120.562 190.241 120.343C189.586 120.125 188.274 126.017 190.241 126.453C192.209 126.89 200.297 127.544 200.297 127.544C200.297 127.544 206.636 127.326 206.199 125.58C205.762 123.835 197.237 120.343 197.237 120.343C197.237 120.343 196.144 118.161 194.613 120.78Z" fill="#2F2E41"/>
<path d="M177.344 34.15L176.251 33.4954L174.94 34.5864C174.94 34.5864 178.874 37.2049 178 39.6053C177.126 42.0056 173.409 47.0244 173.409 47.0244C173.409 47.0244 176.688 50.734 176.688 52.0433C176.688 52.0433 185.214 48.9883 191.553 52.0433C191.553 52.0433 191.553 47.6791 192.427 46.8063C193.302 45.9334 193.739 42.8785 191.553 40.2599C190.013 38.3331 188.624 36.2904 187.4 34.15L185.214 32.8408L184.088 33.1973C184.088 33.1973 186.307 35.6775 184.121 35.8957C181.935 36.1139 178.437 35.4593 177.344 34.15Z" fill="#38D39F"/>
<path d="M185.564 6.32812C184.821 7.15565 183.804 7.68754 182.699 7.82589C180.79 8.09821 182.29 11.0937 182.29 11.0937C182.29 11.0937 181.744 10.0045 182.836 9.05134C183.927 8.09821 185.564 7.55357 185.564 6.32812Z" fill="#2F2E41"/>
<path d="M181.882 14.0704C183.182 14.0704 184.236 13.0181 184.236 11.7201C184.236 10.422 183.182 9.36974 181.882 9.36974C180.582 9.36974 179.527 10.422 179.527 11.7201C179.527 13.0181 180.582 14.0704 181.882 14.0704Z" fill="#2F2E41"/>
<path d="M184.631 14.0344C182.812 13.086 179.683 12.3401 178.02 12.3934L178.441 10.7883C179.912 11.7865 183.025 12.5464 185.051 12.4293L184.631 14.0344Z" fill="#38D39F"/>
<path d="M180.873 14.1757C180.873 14.1757 178.007 17.8545 172.274 18.672C166.541 19.4895 171.045 28.482 171.045 28.482C171.045 28.482 169.407 25.212 172.683 22.3507C175.959 19.4895 180.873 17.8545 180.873 14.1757Z" fill="#2F2E41"/>
<path d="M181.091 13.9575C181.091 13.9575 182.729 19.68 185.186 20.4975C187.643 21.315 186.415 29.8988 182.32 30.7163C182.32 30.7163 185.8 26.0156 183.753 22.3369C181.706 18.6581 180.477 15.7969 181.091 13.9575Z" fill="#2F2E41"/>
<path d="M219.643 4.36421H204.56V6.1099H219.643V4.36421Z" fill="#2F2E41"/>
<path d="M219.643 10.4741C220.367 10.4741 220.955 8.12941 220.955 5.23706C220.955 2.34471 220.367 0 219.643 0C218.919 0 218.331 2.34471 218.331 5.23706C218.331 8.12941 218.919 10.4741 219.643 10.4741Z" fill="#2F2E41"/>
<path d="M204.56 10.4741C205.284 10.4741 205.871 8.12941 205.871 5.23706C205.871 2.34471 205.284 0 204.56 0C203.835 0 203.248 2.34471 203.248 5.23706C203.248 8.12941 203.835 10.4741 204.56 10.4741Z" fill="#2F2E41"/>
<path d="M227.294 121.766H212.211V123.512H227.294V121.766Z" fill="#2F2E41"/>
<path d="M227.294 127.876C228.018 127.876 228.606 125.531 228.606 122.639C228.606 119.746 228.018 117.402 227.294 117.402C226.57 117.402 225.982 119.746 225.982 122.639C225.982 125.531 226.57 127.876 227.294 127.876Z" fill="#2F2E41"/>
<path d="M212.211 127.876C212.935 127.876 213.522 125.531 213.522 122.639C213.522 119.746 212.935 117.402 212.211 117.402C211.486 117.402 210.899 119.746 210.899 122.639C210.899 125.531 211.486 127.876 212.211 127.876Z" fill="#2F2E41"/>
<path opacity="0.3" d="M53.4331 120.351C53.4331 113.921 49.4447 108.708 44.5248 108.708C41.4325 108.708 38.709 110.768 37.1118 113.895C36.5632 113.71 35.9882 113.615 35.4093 113.615C33.9122 113.64 32.4829 114.243 31.4204 115.296C29.9806 111.397 26.9274 108.708 23.3935 108.708C20.0893 108.708 17.2074 111.061 15.6695 114.553C14.7674 113.949 13.7071 113.622 12.6206 113.615C8.84488 113.615 5.78401 117.616 5.78401 122.551C5.77295 124.215 6.14127 125.861 6.86111 127.362H51.6365C52.8372 125.221 53.4565 122.804 53.4331 120.351Z" fill="#38D39F"/>
</svg>
